# MagicaVoxel @ Ephtracy

# group
o 

# material
mtllib helicopter-3.mtl
usemtl palette

# normals
vn -1 0 0
vn 1 0 0
vn 0 0 1
vn 0 0 -1
vn 0 -1 0
vn 0 1 0

# texcoords
vt 0.388672 0.5
vt 0.513672 0.5
vt 0.607422 0.5
vt 0.701172 0.5
vt 0.732422 0.5
vt 0.759766 0.5
vt 0.857422 0.5
vt 0.865234 0.5

# verts
v -1.5 0.1 -3.4
v -1.5 0.1 -3.5
v -1.5 0.1 -3.6
v -1.5 0.1 -3.9
v -1.5 0.1 -4.2
v -1.5 0.1 -4.3
v -1.5 0.2 -3.4
v -1.5 0.2 -3.5
v -1.5 0.2 -3.6
v -1.5 0.2 -3.9
v -1.5 0.2 -4.2
v -1.5 0.2 -4.3
v -1.3 0.2 -4.1
v -1.3 0.2 -4.2
v -1.3 0.3 -4.1
v -1.3 0.3 -4.2
v -1.2 0.1 -3.3
v -1.2 0.1 -3.4
v -1.2 0.1 -4.3
v -1.2 0.1 -4.4
v -1.2 0.2 -3.3
v -1.2 0.2 -3.4
v -1.2 0.2 -4.3
v -1.2 0.2 -4.4
v -1.1 0.2 -3.7
v -1.1 0.2 -3.9
v -1.1 0.3 -3.7
v -1.1 0.3 -3.9
v -1 0.2 -3.9
v -1 0.2 -4
v -1 0.3 -3.9
v -1 0.3 -4
v -0.4 0.2 -3.6
v -0.4 0.2 -3.7
v -0.4 0.3 -3.6
v -0.4 0.3 -3.7
v -0.3 0.2 -3.9
v -0.3 0.2 -4
v -0.3 0.3 -3.9
v -0.3 0.3 -4
v 0 0.2 -3.6
v 0 0.2 -3.7
v 0 0.3 -3.6
v 0 0.3 -3.7
v 0.1 0.2 -3.7
v 0.1 0.2 -3.8
v 0.1 0.3 -3.7
v 0.1 0.3 -3.8
v 0.5 0.2 -3.9
v 0.5 0.2 -4
v 0.5 0.3 -3.9
v 0.5 0.3 -4
v 0.7 0.2 -3.6
v 0.7 0.2 -3.7
v 0.7 0.3 -3.6
v 0.7 0.3 -3.7
v 1.1 0.2 -3.8
v 1.1 0.2 -4
v 1.1 0.3 -3.8
v 1.1 0.3 -4
v 1.5 0.2 -3.8
v 1.5 0.2 -3.9
v 1.5 0.3 -3.8
v 1.5 0.3 -3.9
v 1.6 0.2 -3.7
v 1.6 0.2 -3.8
v 1.6 0.3 -3.7
v 1.6 0.3 -3.8
v 1.9 0.2 -3.8
v 1.9 0.2 -3.9
v 1.9 0.3 -3.8
v 1.9 0.3 -3.9
v 2 0.2 -3.7
v 2 0.2 -3.8
v 2 0.3 -3.7
v 2 0.3 -3.8
v -1.2 0.2 -4.1
v -1.2 0.2 -4.2
v -1.2 0.3 -4.1
v -1.2 0.3 -4.2
v -1 0.2 -3.7
v -1 0.2 -3.9
v -1 0.3 -3.7
v -1 0.3 -3.9
v -0.9 0.2 -3.9
v -0.9 0.2 -4
v -0.9 0.3 -3.9
v -0.9 0.3 -4
v -0.3 0.2 -3.6
v -0.3 0.2 -3.7
v -0.3 0.3 -3.6
v -0.3 0.3 -3.7
v -0.1 0.2 -3.9
v -0.1 0.2 -4
v -0.1 0.3 -3.9
v -0.1 0.3 -4
v 0.2 0.2 -3.6
v 0.2 0.2 -3.8
v 0.2 0.3 -3.6
v 0.2 0.3 -3.8
v 0.7 0.2 -3.9
v 0.7 0.2 -4
v 0.7 0.3 -3.9
v 0.7 0.3 -4
v 0.8 0.1 -3.3
v 0.8 0.1 -3.4
v 0.8 0.1 -4.3
v 0.8 0.1 -4.4
v 0.8 0.2 -3.3
v 0.8 0.2 -3.4
v 0.8 0.2 -3.6
v 0.8 0.2 -3.7
v 0.8 0.2 -4.3
v 0.8 0.2 -4.4
v 0.8 0.3 -3.6
v 0.8 0.3 -3.7
v 1.2 0.2 -3.8
v 1.2 0.2 -4
v 1.2 0.3 -3.8
v 1.2 0.3 -4
v 1.5 0.1 -3.4
v 1.5 0.1 -3.5
v 1.5 0.1 -4.2
v 1.5 0.1 -4.3
v 1.5 0.2 -3.4
v 1.5 0.2 -3.5
v 1.5 0.2 -4.2
v 1.5 0.2 -4.3
v 1.7 0.2 -3.7
v 1.7 0.2 -3.9
v 1.7 0.3 -3.7
v 1.7 0.3 -3.9
v 2 0.2 -3.8
v 2 0.2 -3.9
v 2 0.3 -3.8
v 2 0.3 -3.9
v 2.1 0.1 -3.5
v 2.1 0.1 -3.6
v 2.1 0.1 -4.1
v 2.1 0.1 -4.2
v 2.1 0.2 -3.5
v 2.1 0.2 -3.6
v 2.1 0.2 -4.1
v 2.1 0.2 -4.2
v 2.2 0.2 -3.7
v 2.2 0.2 -3.8
v 2.2 0.3 -3.7
v 2.2 0.3 -3.8
v 2.5 0.1 -3.6
v 2.5 0.1 -4.1
v 2.5 0.2 -3.6
v 2.5 0.2 -4.1
v -1.2 0.1 -3.3
v -1.2 0.2 -3.3
v 0.8 0.1 -3.3
v 0.8 0.2 -3.3
v -1.5 0.1 -3.4
v -1.5 0.2 -3.4
v -1.2 0.1 -3.4
v -1.2 0.2 -3.4
v 0.8 0.1 -3.4
v 0.8 0.2 -3.4
v 1.5 0.1 -3.4
v 1.5 0.2 -3.4
v 1.5 0.1 -3.5
v 1.5 0.2 -3.5
v 2.1 0.1 -3.5
v 2.1 0.2 -3.5
v -0.4 0.2 -3.6
v -0.4 0.3 -3.6
v -0.3 0.2 -3.6
v -0.3 0.3 -3.6
v 0 0.2 -3.6
v 0 0.3 -3.6
v 0.2 0.2 -3.6
v 0.2 0.3 -3.6
v 0.7 0.2 -3.6
v 0.7 0.3 -3.6
v 0.8 0.2 -3.6
v 0.8 0.3 -3.6
v 2.1 0.1 -3.6
v 2.1 0.2 -3.6
v 2.5 0.1 -3.6
v 2.5 0.2 -3.6
v -1.1 0.2 -3.7
v -1.1 0.3 -3.7
v -1 0.2 -3.7
v -1 0.3 -3.7
v 1.6 0.2 -3.7
v 1.6 0.3 -3.7
v 1.7 0.2 -3.7
v 1.7 0.3 -3.7
v 2 0.2 -3.7
v 2 0.3 -3.7
v 2.1 0.2 -3.7
v 2.2 0.2 -3.7
v 2.2 0.3 -3.7
v 1.1 0.2 -3.8
v 1.1 0.3 -3.8
v 1.2 0.2 -3.8
v 1.2 0.3 -3.8
v 1.5 0.2 -3.8
v 1.5 0.3 -3.8
v 1.6 0.2 -3.8
v 1.6 0.3 -3.8
v 1.9 0.2 -3.8
v 1.9 0.3 -3.8
v 2 0.2 -3.8
v 2 0.3 -3.8
v -1 0.2 -3.9
v -1 0.3 -3.9
v -0.9 0.2 -3.9
v -0.9 0.3 -3.9
v -0.3 0.2 -3.9
v -0.3 0.3 -3.9
v -0.2 0.2 -3.9
v -0.1 0.2 -3.9
v -0.1 0.3 -3.9
v 0.5 0.2 -3.9
v 0.5 0.3 -3.9
v 0.7 0.2 -3.9
v 0.7 0.3 -3.9
v -1.3 0.2 -4.1
v -1.3 0.3 -4.1
v -1.2 0.2 -4.1
v -1.2 0.3 -4.1
v -0.4 0.2 -3.7
v -0.4 0.3 -3.7
v -0.3 0.2 -3.7
v -0.3 0.3 -3.7
v 0 0.2 -3.7
v 0 0.3 -3.7
v 0.1 0.2 -3.7
v 0.1 0.3 -3.7
v 0.7 0.2 -3.7
v 0.7 0.3 -3.7
v 0.8 0.2 -3.7
v 0.8 0.3 -3.7
v 0.1 0.2 -3.8
v 0.1 0.3 -3.8
v 0.2 0.2 -3.8
v 0.2 0.3 -3.8
v 2 0.2 -3.8
v 2 0.3 -3.8
v 2.1 0.2 -3.8
v 2.2 0.2 -3.8
v 2.2 0.3 -3.8
v -1.1 0.2 -3.9
v -1.1 0.3 -3.9
v -1 0.2 -3.9
v -1 0.3 -3.9
v 1.5 0.2 -3.9
v 1.5 0.3 -3.9
v 1.7 0.2 -3.9
v 1.7 0.3 -3.9
v 1.9 0.2 -3.9
v 1.9 0.3 -3.9
v 2 0.2 -3.9
v 2 0.3 -3.9
v -1 0.2 -4
v -1 0.3 -4
v -0.9 0.2 -4
v -0.9 0.3 -4
v -0.3 0.2 -4
v -0.3 0.3 -4
v -0.1 0.2 -4
v -0.1 0.3 -4
v 0.5 0.2 -4
v 0.5 0.3 -4
v 0.7 0.2 -4
v 0.7 0.3 -4
v 1.1 0.2 -4
v 1.1 0.3 -4
v 1.2 0.2 -4
v 1.2 0.3 -4
v 2.1 0.1 -4.1
v 2.1 0.2 -4.1
v 2.5 0.1 -4.1
v 2.5 0.2 -4.1
v -1.3 0.2 -4.2
v -1.3 0.3 -4.2
v -1.2 0.2 -4.2
v -1.2 0.3 -4.2
v 1.5 0.1 -4.2
v 1.5 0.2 -4.2
v 2.1 0.1 -4.2
v 2.1 0.2 -4.2
v -1.5 0.1 -4.3
v -1.5 0.2 -4.3
v -1.2 0.1 -4.3
v -1.2 0.2 -4.3
v 0.8 0.1 -4.3
v 0.8 0.2 -4.3
v 1.5 0.1 -4.3
v 1.5 0.2 -4.3
v -1.2 0.1 -4.4
v -1.2 0.2 -4.4
v 0.8 0.1 -4.4
v 0.8 0.2 -4.4
v -1.2 0.1 -3.3
v 0.8 0.1 -3.3
v -1.5 0.1 -3.4
v -1.2 0.1 -3.4
v 0.8 0.1 -3.4
v 1.5 0.1 -3.4
v -1.5 0.1 -3.5
v -1.2 0.1 -3.5
v 0.4 0.1 -3.5
v 0.7 0.1 -3.5
v 0.8 0.1 -3.5
v 1.5 0.1 -3.5
v 2.1 0.1 -3.5
v -1.5 0.1 -3.6
v -1.2 0.1 -3.6
v 0.4 0.1 -3.6
v 0.6 0.1 -3.6
v 0.7 0.1 -3.6
v 1.4 0.1 -3.6
v 1.5 0.1 -3.6
v 2.1 0.1 -3.6
v 2.5 0.1 -3.6
v -1.3 0.1 -3.7
v -1.2 0.1 -3.7
v -0.3 0.1 -3.7
v -0.2 0.1 -3.7
v -0.1 0.1 -3.7
v 0 0.1 -3.7
v 0.6 0.1 -3.7
v 0.8 0.1 -3.7
v 1.4 0.1 -3.7
v 1.6 0.1 -3.7
v 2 0.1 -3.7
v 2.1 0.1 -3.7
v 2.4 0.1 -3.7
v -1.4 0.1 -3.8
v -1.3 0.1 -3.8
v -0.4 0.1 -3.8
v -0.3 0.1 -3.8
v -0.2 0.1 -3.8
v -0.1 0.1 -3.8
v 0 0.1 -3.8
v 0.8 0.1 -3.8
v 0.9 0.1 -3.8
v 2 0.1 -3.8
v 2.1 0.1 -3.8
v 2.4 0.1 -3.8
v -1.5 0.1 -3.9
v -1.4 0.1 -3.9
v -0.5 0.1 -3.9
v -0.4 0.1 -3.9
v -0.3 0.1 -3.9
v -0.2 0.1 -3.9
v -0.1 0.1 -3.9
v 0.9 0.1 -3.9
v 1 0.1 -3.9
v 1.4 0.1 -3.9
v 1.6 0.1 -3.9
v -0.6 0.1 -4
v -0.5 0.1 -4
v -0.4 0.1 -4
v -0.3 0.1 -4
v -0.2 0.1 -4
v 0.9 0.1 -4
v 1 0.1 -4
v 1.3 0.1 -4
v 1.4 0.1 -4
v 2.1 0.1 -4
v 2.4 0.1 -4
v -0.6 0.1 -4.1
v -0.5 0.1 -4.1
v -0.4 0.1 -4.1
v -0.3 0.1 -4.1
v 0.6 0.1 -4.1
v 0.9 0.1 -4.1
v 1.1 0.1 -4.1
v 1.3 0.1 -4.1
v 1.5 0.1 -4.1
v 2.1 0.1 -4.1
v 2.5 0.1 -4.1
v -1.5 0.1 -4.2
v -1.2 0.1 -4.2
v 0.3 0.1 -4.2
v 0.6 0.1 -4.2
v 0.8 0.1 -4.2
v 1.1 0.1 -4.2
v 1.5 0.1 -4.2
v 2.1 0.1 -4.2
v -1.5 0.1 -4.3
v -1.2 0.1 -4.3
v 0.3 0.1 -4.3
v 0.8 0.1 -4.3
v 1.5 0.1 -4.3
v -1.2 0.1 -4.4
v 0.8 0.1 -4.4
v -1.2 0.2 -3.3
v 0.8 0.2 -3.3
v -1.5 0.2 -3.4
v -1.2 0.2 -3.4
v 0.8 0.2 -3.4
v 1.5 0.2 -3.4
v -1.5 0.2 -3.5
v -1.2 0.2 -3.5
v 0.4 0.2 -3.5
v 0.7 0.2 -3.5
v 0.8 0.2 -3.5
v 1.5 0.2 -3.5
v 2.1 0.2 -3.5
v -1.5 0.2 -3.6
v -1.2 0.2 -3.6
v -0.4 0.2 -3.6
v -0.3 0.2 -3.6
v 0 0.2 -3.6
v 0.2 0.2 -3.6
v 0.4 0.2 -3.6
v 0.6 0.2 -3.6
v 0.7 0.2 -3.6
v 0.8 0.2 -3.6
v 1.4 0.2 -3.6
v 1.5 0.2 -3.6
v 2.1 0.2 -3.6
v 2.5 0.2 -3.6
v -1.3 0.2 -3.7
v -1.2 0.2 -3.7
v -1.1 0.2 -3.7
v -1 0.2 -3.7
v -0.4 0.2 -3.7
v -0.3 0.2 -3.7
v -0.2 0.2 -3.7
v -0.1 0.2 -3.7
v 0 0.2 -3.7
v 0.1 0.2 -3.7
v 0.6 0.2 -3.7
v 0.7 0.2 -3.7
v 0.8 0.2 -3.7
v 1.4 0.2 -3.7
v 1.6 0.2 -3.7
v 1.7 0.2 -3.7
v 2 0.2 -3.7
v 2.1 0.2 -3.7
v 2.2 0.2 -3.7
v 2.4 0.2 -3.7
v -1.4 0.2 -3.8
v -1.3 0.2 -3.8
v -0.4 0.2 -3.8
v -0.3 0.2 -3.8
v -0.2 0.2 -3.8
v -0.1 0.2 -3.8
v 0 0.2 -3.8
v 0.1 0.2 -3.8
v 0.2 0.2 -3.8
v 0.8 0.2 -3.8
v 0.9 0.2 -3.8
v 1.1 0.2 -3.8
v 1.2 0.2 -3.8
v 1.5 0.2 -3.8
v 1.6 0.2 -3.8
v 1.9 0.2 -3.8
v 2 0.2 -3.8
v 2.1 0.2 -3.8
v 2.2 0.2 -3.8
v 2.4 0.2 -3.8
v -1.5 0.2 -3.9
v -1.4 0.2 -3.9
v -1.1 0.2 -3.9
v -1 0.2 -3.9
v -0.9 0.2 -3.9
v -0.5 0.2 -3.9
v -0.4 0.2 -3.9
v -0.3 0.2 -3.9
v -0.2 0.2 -3.9
v -0.1 0.2 -3.9
v 0.5 0.2 -3.9
v 0.7 0.2 -3.9
v 0.9 0.2 -3.9
v 1 0.2 -3.9
v 1.4 0.2 -3.9
v 1.5 0.2 -3.9
v 1.7 0.2 -3.9
v 1.9 0.2 -3.9
v 2 0.2 -3.9
v -1 0.2 -4
v -0.9 0.2 -4
v -0.6 0.2 -4
v -0.5 0.2 -4
v -0.4 0.2 -4
v -0.3 0.2 -4
v -0.1 0.2 -4
v 0.5 0.2 -4
v 0.7 0.2 -4
v 0.9 0.2 -4
v 1 0.2 -4
v 1.1 0.2 -4
v 1.2 0.2 -4
v 1.3 0.2 -4
v 1.4 0.2 -4
v 2.1 0.2 -4
v 2.4 0.2 -4
v -1.3 0.2 -4.1
v -1.2 0.2 -4.1
v -0.6 0.2 -4.1
v -0.5 0.2 -4.1
v -0.4 0.2 -4.1
v -0.3 0.2 -4.1
v 0.6 0.2 -4.1
v 0.9 0.2 -4.1
v 1.1 0.2 -4.1
v 1.3 0.2 -4.1
v 1.5 0.2 -4.1
v 2.1 0.2 -4.1
v 2.5 0.2 -4.1
v -1.5 0.2 -4.2
v -1.3 0.2 -4.2
v -1.2 0.2 -4.2
v 0.3 0.2 -4.2
v 0.6 0.2 -4.2
v 0.8 0.2 -4.2
v 1.1 0.2 -4.2
v 1.5 0.2 -4.2
v 2.1 0.2 -4.2
v -1.5 0.2 -4.3
v -1.2 0.2 -4.3
v 0.3 0.2 -4.3
v 0.8 0.2 -4.3
v 1.5 0.2 -4.3
v -1.2 0.2 -4.4
v 0.8 0.2 -4.4
v -0.4 0.3 -3.6
v -0.3 0.3 -3.6
v 0 0.3 -3.6
v 0.2 0.3 -3.6
v 0.7 0.3 -3.6
v 0.8 0.3 -3.6
v -1.1 0.3 -3.7
v -1 0.3 -3.7
v -0.4 0.3 -3.7
v -0.3 0.3 -3.7
v 0 0.3 -3.7
v 0.1 0.3 -3.7
v 0.7 0.3 -3.7
v 0.8 0.3 -3.7
v 1.6 0.3 -3.7
v 1.7 0.3 -3.7
v 2 0.3 -3.7
v 2.2 0.3 -3.7
v 0.1 0.3 -3.8
v 0.2 0.3 -3.8
v 1.1 0.3 -3.8
v 1.2 0.3 -3.8
v 1.5 0.3 -3.8
v 1.6 0.3 -3.8
v 1.9 0.3 -3.8
v 2 0.3 -3.8
v 2.2 0.3 -3.8
v -1.1 0.3 -3.9
v -1 0.3 -3.9
v -0.9 0.3 -3.9
v -0.3 0.3 -3.9
v -0.1 0.3 -3.9
v 0.5 0.3 -3.9
v 0.7 0.3 -3.9
v 1.5 0.3 -3.9
v 1.7 0.3 -3.9
v 1.9 0.3 -3.9
v 2 0.3 -3.9
v -1 0.3 -4
v -0.9 0.3 -4
v -0.3 0.3 -4
v -0.1 0.3 -4
v 0.5 0.3 -4
v 0.7 0.3 -4
v 1.1 0.3 -4
v 1.2 0.3 -4
v -1.3 0.3 -4.1
v -1.2 0.3 -4.1
v -1.3 0.3 -4.2
v -1.2 0.3 -4.2

# faces
f 7/6/1 2/6/1 1/6/1
f 8/3/1 3/3/1 2/3/1
f 8/6/1 2/6/1 7/6/1
f 9/5/1 4/5/1 3/5/1
f 9/3/1 3/3/1 8/3/1
f 10/2/1 5/2/1 4/2/1
f 10/5/1 4/5/1 9/5/1
f 11/6/1 6/6/1 5/6/1
f 11/2/1 5/2/1 10/2/1
f 12/6/1 6/6/1 11/6/1
f 15/8/1 14/8/1 13/8/1
f 16/8/1 14/8/1 15/8/1
f 21/6/1 18/6/1 17/6/1
f 22/6/1 18/6/1 21/6/1
f 23/6/1 20/6/1 19/6/1
f 24/6/1 20/6/1 23/6/1
f 27/8/1 26/8/1 25/8/1
f 28/8/1 26/8/1 27/8/1
f 31/8/1 30/8/1 29/8/1
f 32/8/1 30/8/1 31/8/1
f 35/8/1 34/8/1 33/8/1
f 36/8/1 34/8/1 35/8/1
f 39/8/1 38/8/1 37/8/1
f 40/8/1 38/8/1 39/8/1
f 43/8/1 42/8/1 41/8/1
f 44/8/1 42/8/1 43/8/1
f 47/8/1 46/8/1 45/8/1
f 48/8/1 46/8/1 47/8/1
f 51/8/1 50/8/1 49/8/1
f 52/8/1 50/8/1 51/8/1
f 55/8/1 54/8/1 53/8/1
f 56/8/1 54/8/1 55/8/1
f 59/8/1 58/8/1 57/8/1
f 60/8/1 58/8/1 59/8/1
f 63/8/1 62/8/1 61/8/1
f 64/8/1 62/8/1 63/8/1
f 67/8/1 66/8/1 65/8/1
f 68/8/1 66/8/1 67/8/1
f 71/8/1 70/8/1 69/8/1
f 72/8/1 70/8/1 71/8/1
f 75/8/1 74/8/1 73/8/1
f 76/8/1 74/8/1 75/8/1
f 77/8/2 78/8/2 79/8/2
f 79/8/2 78/8/2 80/8/2
f 81/8/2 82/8/2 83/8/2
f 83/8/2 82/8/2 84/8/2
f 85/8/2 86/8/2 87/8/2
f 87/8/2 86/8/2 88/8/2
f 89/8/2 90/8/2 91/8/2
f 91/8/2 90/8/2 92/8/2
f 93/8/2 94/8/2 95/8/2
f 95/8/2 94/8/2 96/8/2
f 97/8/2 98/8/2 99/8/2
f 99/8/2 98/8/2 100/8/2
f 101/8/2 102/8/2 103/8/2
f 103/8/2 102/8/2 104/8/2
f 105/6/2 106/6/2 109/6/2
f 109/6/2 106/6/2 110/6/2
f 107/6/2 108/6/2 113/6/2
f 113/6/2 108/6/2 114/6/2
f 111/8/2 112/8/2 115/8/2
f 115/8/2 112/8/2 116/8/2
f 117/8/2 118/8/2 119/8/2
f 119/8/2 118/8/2 120/8/2
f 121/6/2 122/6/2 125/6/2
f 125/6/2 122/6/2 126/6/2
f 123/6/2 124/6/2 127/6/2
f 127/6/2 124/6/2 128/6/2
f 129/8/2 130/8/2 131/8/2
f 131/8/2 130/8/2 132/8/2
f 133/8/2 134/8/2 135/8/2
f 135/8/2 134/8/2 136/8/2
f 137/6/2 138/6/2 141/6/2
f 141/6/2 138/6/2 142/6/2
f 139/6/2 140/6/2 143/6/2
f 143/6/2 140/6/2 144/6/2
f 145/8/2 146/8/2 147/8/2
f 147/8/2 146/8/2 148/8/2
f 149/6/2 150/6/2 151/6/2
f 151/6/2 150/6/2 152/6/2
f 155/6/3 154/6/3 153/6/3
f 156/6/3 154/6/3 155/6/3
f 159/6/3 158/6/3 157/6/3
f 160/6/3 158/6/3 159/6/3
f 163/6/3 162/6/3 161/6/3
f 164/6/3 162/6/3 163/6/3
f 167/6/3 166/6/3 165/6/3
f 168/6/3 166/6/3 167/6/3
f 171/8/3 170/8/3 169/8/3
f 172/8/3 170/8/3 171/8/3
f 175/8/3 174/8/3 173/8/3
f 176/8/3 174/8/3 175/8/3
f 179/8/3 178/8/3 177/8/3
f 180/8/3 178/8/3 179/8/3
f 183/6/3 182/6/3 181/6/3
f 184/6/3 182/6/3 183/6/3
f 187/8/3 186/8/3 185/8/3
f 188/8/3 186/8/3 187/8/3
f 191/8/3 190/8/3 189/8/3
f 192/8/3 190/8/3 191/8/3
f 195/8/3 194/8/3 193/8/3
f 196/8/3 194/8/3 195/8/3
f 197/8/3 194/8/3 196/8/3
f 200/8/3 199/8/3 198/8/3
f 201/8/3 199/8/3 200/8/3
f 204/8/3 203/8/3 202/8/3
f 205/8/3 203/8/3 204/8/3
f 208/8/3 207/8/3 206/8/3
f 209/8/3 207/8/3 208/8/3
f 212/8/3 211/8/3 210/8/3
f 213/8/3 211/8/3 212/8/3
f 216/8/3 215/8/3 214/8/3
f 217/8/3 215/8/3 216/8/3
f 218/8/3 215/8/3 217/8/3
f 221/8/3 220/8/3 219/8/3
f 222/8/3 220/8/3 221/8/3
f 225/8/3 224/8/3 223/8/3
f 226/8/3 224/8/3 225/8/3
f 227/8/4 228/8/4 229/8/4
f 229/8/4 228/8/4 230/8/4
f 231/8/4 232/8/4 233/8/4
f 233/8/4 232/8/4 234/8/4
f 235/8/4 236/8/4 237/8/4
f 237/8/4 236/8/4 238/8/4
f 239/8/4 240/8/4 241/8/4
f 241/8/4 240/8/4 242/8/4
f 243/8/4 244/8/4 245/8/4
f 245/8/4 244/8/4 246/8/4
f 246/8/4 244/8/4 247/8/4
f 248/8/4 249/8/4 250/8/4
f 250/8/4 249/8/4 251/8/4
f 252/8/4 253/8/4 254/8/4
f 254/8/4 253/8/4 255/8/4
f 256/8/4 257/8/4 258/8/4
f 258/8/4 257/8/4 259/8/4
f 260/8/4 261/8/4 262/8/4
f 262/8/4 261/8/4 263/8/4
f 264/8/4 265/8/4 266/8/4
f 266/8/4 265/8/4 267/8/4
f 268/8/4 269/8/4 270/8/4
f 270/8/4 269/8/4 271/8/4
f 272/8/4 273/8/4 274/8/4
f 274/8/4 273/8/4 275/8/4
f 276/6/4 277/6/4 278/6/4
f 278/6/4 277/6/4 279/6/4
f 280/8/4 281/8/4 282/8/4
f 282/8/4 281/8/4 283/8/4
f 284/6/4 285/6/4 286/6/4
f 286/6/4 285/6/4 287/6/4
f 288/6/4 289/6/4 290/6/4
f 290/6/4 289/6/4 291/6/4
f 292/6/4 293/6/4 294/6/4
f 294/6/4 293/6/4 295/6/4
f 296/6/4 297/6/4 298/6/4
f 298/6/4 297/6/4 299/6/4
f 303/6/5 301/6/5 300/6/5
f 304/6/5 301/6/5 303/6/5
f 306/6/5 303/6/5 302/6/5
f 307/3/5 304/3/5 303/3/5
f 307/6/5 303/6/5 306/6/5
f 308/3/5 304/3/5 307/3/5
f 309/3/5 304/3/5 308/3/5
f 310/6/5 305/6/5 304/6/5
f 310/3/5 304/3/5 309/3/5
f 311/6/5 305/6/5 310/6/5
f 313/3/5 307/3/5 306/3/5
f 314/2/5 308/2/5 307/2/5
f 314/3/5 307/3/5 313/3/5
f 315/5/5 309/5/5 308/5/5
f 315/2/5 308/2/5 314/2/5
f 316/5/5 309/5/5 315/5/5
f 317/3/5 310/3/5 309/3/5
f 317/5/5 309/5/5 316/5/5
f 317/3/5 311/3/5 310/3/5
f 318/3/5 311/3/5 317/3/5
f 319/6/5 312/6/5 311/6/5
f 319/3/5 311/3/5 318/3/5
f 320/6/5 312/6/5 319/6/5
f 322/5/5 314/5/5 313/5/5
f 323/2/5 316/2/5 315/2/5
f 323/5/5 314/5/5 322/5/5
f 323/2/5 315/2/5 314/2/5
f 324/2/5 316/2/5 323/2/5
f 325/2/5 316/2/5 324/2/5
f 326/2/5 316/2/5 325/2/5
f 327/2/5 316/2/5 326/2/5
f 328/5/5 318/5/5 317/5/5
f 328/2/5 316/2/5 327/2/5
f 328/5/5 317/5/5 316/5/5
f 329/5/5 318/5/5 328/5/5
f 330/3/5 320/3/5 319/3/5
f 330/5/5 318/5/5 329/5/5
f 330/3/5 319/3/5 318/3/5
f 331/3/5 320/3/5 330/3/5
f 332/3/5 320/3/5 331/3/5
f 333/6/5 321/6/5 320/6/5
f 333/3/5 320/3/5 332/3/5
f 334/6/5 321/6/5 333/6/5
f 335/5/5 322/5/5 313/5/5
f 336/2/5 323/2/5 322/2/5
f 336/5/5 322/5/5 335/5/5
f 336/2/5 324/2/5 323/2/5
f 337/2/5 324/2/5 336/2/5
f 338/1/5 325/1/5 324/1/5
f 338/2/5 324/2/5 337/2/5
f 339/5/5 326/5/5 325/5/5
f 339/1/5 325/1/5 338/1/5
f 340/7/5 327/7/5 326/7/5
f 340/5/5 326/5/5 339/5/5
f 341/2/5 329/2/5 328/2/5
f 341/7/5 327/7/5 340/7/5
f 341/2/5 328/2/5 327/2/5
f 342/5/5 330/5/5 329/5/5
f 342/2/5 329/2/5 341/2/5
f 342/5/5 331/5/5 330/5/5
f 343/5/5 331/5/5 342/5/5
f 344/7/5 332/7/5 331/7/5
f 344/3/5 334/3/5 333/3/5
f 344/3/5 333/3/5 332/3/5
f 345/3/5 334/3/5 344/3/5
f 346/6/5 321/6/5 334/6/5
f 346/3/5 334/3/5 345/3/5
f 347/5/5 335/5/5 313/5/5
f 348/2/5 336/2/5 335/2/5
f 348/5/5 335/5/5 347/5/5
f 348/2/5 337/2/5 336/2/5
f 349/2/5 337/2/5 348/2/5
f 350/1/5 338/1/5 337/1/5
f 350/2/5 337/2/5 349/2/5
f 351/5/5 339/5/5 338/5/5
f 351/1/5 338/1/5 350/1/5
f 352/7/5 340/7/5 339/7/5
f 352/5/5 339/5/5 351/5/5
f 353/2/5 343/2/5 342/2/5
f 353/7/5 340/7/5 352/7/5
f 353/2/5 341/2/5 340/2/5
f 353/2/5 342/2/5 341/2/5
f 354/5/5 331/5/5 343/5/5
f 354/2/5 343/2/5 353/2/5
f 355/5/5 331/5/5 354/5/5
f 356/5/5 331/5/5 355/5/5
f 357/7/5 345/7/5 344/7/5
f 357/5/5 331/5/5 356/5/5
f 357/7/5 344/7/5 331/7/5
f 358/2/5 349/2/5 348/2/5
f 358/2/5 348/2/5 347/2/5
f 359/1/5 350/1/5 349/1/5
f 359/2/5 349/2/5 358/2/5
f 360/5/5 351/5/5 350/5/5
f 360/1/5 350/1/5 359/1/5
f 361/7/5 352/7/5 351/7/5
f 361/5/5 351/5/5 360/5/5
f 362/2/5 353/2/5 352/2/5
f 362/7/5 352/7/5 361/7/5
f 362/2/5 355/2/5 354/2/5
f 362/2/5 354/2/5 353/2/5
f 363/2/5 355/2/5 362/2/5
f 364/5/5 356/5/5 355/5/5
f 364/2/5 355/2/5 363/2/5
f 365/5/5 356/5/5 364/5/5
f 366/7/5 357/7/5 356/7/5
f 366/5/5 356/5/5 365/5/5
f 367/7/5 345/7/5 357/7/5
f 367/7/5 357/7/5 366/7/5
f 367/4/5 346/4/5 345/4/5
f 368/6/5 321/6/5 346/6/5
f 368/4/5 346/4/5 367/4/5
f 369/2/5 358/2/5 347/2/5
f 369/1/5 359/1/5 358/1/5
f 370/5/5 360/5/5 359/5/5
f 370/1/5 359/1/5 369/1/5
f 371/7/5 361/7/5 360/7/5
f 371/5/5 360/5/5 370/5/5
f 372/2/5 363/2/5 362/2/5
f 372/7/5 361/7/5 371/7/5
f 372/2/5 362/2/5 361/2/5
f 373/2/5 363/2/5 372/2/5
f 374/5/5 364/5/5 363/5/5
f 374/2/5 363/2/5 373/2/5
f 374/5/5 365/5/5 364/5/5
f 375/5/5 365/5/5 374/5/5
f 376/7/5 366/7/5 365/7/5
f 376/5/5 365/5/5 375/5/5
f 376/7/5 367/7/5 366/7/5
f 377/7/5 367/7/5 376/7/5
f 378/6/5 368/6/5 367/6/5
f 378/7/5 367/7/5 377/7/5
f 379/6/5 321/6/5 368/6/5
f 379/6/5 368/6/5 378/6/5
f 380/2/5 370/2/5 369/2/5
f 380/2/5 371/2/5 370/2/5
f 380/2/5 369/2/5 347/2/5
f 380/2/5 372/2/5 371/2/5
f 380/2/5 373/2/5 372/2/5
f 381/2/5 373/2/5 380/2/5
f 382/2/5 373/2/5 381/2/5
f 383/5/5 375/5/5 374/5/5
f 383/2/5 373/2/5 382/2/5
f 383/5/5 374/5/5 373/5/5
f 384/5/5 375/5/5 383/5/5
f 385/7/5 376/7/5 375/7/5
f 385/5/5 375/5/5 384/5/5
f 385/7/5 377/7/5 376/7/5
f 386/6/5 378/6/5 377/6/5
f 386/7/5 377/7/5 385/7/5
f 387/6/5 378/6/5 386/6/5
f 388/6/5 381/6/5 380/6/5
f 389/2/5 382/2/5 381/2/5
f 389/6/5 381/6/5 388/6/5
f 390/5/5 384/5/5 383/5/5
f 390/2/5 382/2/5 389/2/5
f 390/5/5 383/5/5 382/5/5
f 391/6/5 385/6/5 384/6/5
f 391/5/5 384/5/5 390/5/5
f 391/6/5 386/6/5 385/6/5
f 392/6/5 386/6/5 391/6/5
f 393/6/5 390/6/5 389/6/5
f 393/6/5 391/6/5 390/6/5
f 394/6/5 391/6/5 393/6/5
f 395/6/6 396/6/6 398/6/6
f 398/6/6 396/6/6 399/6/6
f 397/6/6 398/6/6 401/6/6
f 398/3/6 399/3/6 402/3/6
f 401/6/6 398/6/6 402/6/6
f 402/3/6 399/3/6 403/3/6
f 403/3/6 399/3/6 404/3/6
f 399/6/6 400/6/6 405/6/6
f 404/3/6 399/3/6 405/3/6
f 405/6/6 400/6/6 406/6/6
f 401/3/6 402/3/6 408/3/6
f 402/2/6 403/2/6 409/2/6
f 408/3/6 402/3/6 409/3/6
f 409/2/6 403/2/6 410/2/6
f 410/2/6 403/2/6 411/2/6
f 411/2/6 403/2/6 412/2/6
f 412/2/6 403/2/6 413/2/6
f 403/5/6 404/5/6 414/5/6
f 413/2/6 403/2/6 414/2/6
f 414/5/6 404/5/6 415/5/6
f 404/3/6 405/3/6 416/3/6
f 415/5/6 404/5/6 416/5/6
f 405/3/6 406/3/6 416/3/6
f 416/3/6 406/3/6 417/3/6
f 417/3/6 406/3/6 418/3/6
f 406/6/6 407/6/6 419/6/6
f 418/3/6 406/3/6 419/3/6
f 419/6/6 407/6/6 420/6/6
f 408/5/6 409/5/6 422/5/6
f 409/2/6 410/2/6 423/2/6
f 422/5/6 409/5/6 423/5/6
f 423/2/6 410/2/6 424/2/6
f 424/2/6 410/2/6 425/2/6
f 425/2/6 410/2/6 426/2/6
f 411/2/6 412/2/6 427/2/6
f 427/2/6 412/2/6 428/2/6
f 428/2/6 412/2/6 429/2/6
f 429/2/6 412/2/6 430/2/6
f 414/2/6 415/2/6 432/2/6
f 413/2/6 414/2/6 432/2/6
f 415/5/6 416/5/6 432/5/6
f 432/5/6 416/5/6 433/5/6
f 417/5/6 418/5/6 434/5/6
f 419/3/6 420/3/6 435/3/6
f 418/3/6 419/3/6 435/3/6
f 434/5/6 418/5/6 435/5/6
f 435/3/6 420/3/6 436/3/6
f 436/3/6 420/3/6 437/3/6
f 437/3/6 420/3/6 438/3/6
f 420/6/6 421/6/6 439/6/6
f 438/3/6 420/3/6 439/3/6
f 439/6/6 421/6/6 440/6/6
f 440/6/6 421/6/6 441/6/6
f 408/5/6 422/5/6 442/5/6
f 422/2/6 423/2/6 443/2/6
f 442/5/6 422/5/6 443/5/6
f 423/2/6 424/2/6 443/2/6
f 425/2/6 426/2/6 444/2/6
f 426/2/6 427/2/6 444/2/6
f 427/1/6 428/1/6 445/1/6
f 444/2/6 427/2/6 445/2/6
f 428/5/6 429/5/6 446/5/6
f 445/1/6 428/1/6 446/1/6
f 429/7/6 430/7/6 447/7/6
f 446/5/6 429/5/6 447/5/6
f 430/2/6 431/2/6 448/2/6
f 447/7/6 430/7/6 448/7/6
f 448/2/6 431/2/6 449/2/6
f 432/2/6 433/2/6 450/2/6
f 433/2/6 434/2/6 450/2/6
f 413/2/6 432/2/6 450/2/6
f 435/5/6 436/5/6 451/5/6
f 434/5/6 435/5/6 451/5/6
f 450/2/6 434/2/6 451/2/6
f 451/5/6 436/5/6 452/5/6
f 452/5/6 436/5/6 453/5/6
f 453/5/6 436/5/6 454/5/6
f 454/5/6 436/5/6 455/5/6
f 455/5/6 436/5/6 456/5/6
f 437/7/6 438/7/6 457/7/6
f 457/7/6 438/7/6 458/7/6
f 440/3/6 441/3/6 460/3/6
f 441/6/6 421/6/6 461/6/6
f 460/3/6 441/3/6 461/3/6
f 408/5/6 442/5/6 462/5/6
f 442/2/6 443/2/6 463/2/6
f 462/5/6 442/5/6 463/5/6
f 443/2/6 424/2/6 464/2/6
f 463/2/6 443/2/6 464/2/6
f 425/2/6 444/2/6 465/2/6
f 465/2/6 444/2/6 466/2/6
f 466/2/6 444/2/6 467/2/6
f 444/1/6 445/1/6 468/1/6
f 467/2/6 444/2/6 468/2/6
f 445/5/6 446/5/6 469/5/6
f 468/1/6 445/1/6 469/1/6
f 446/7/6 447/7/6 470/7/6
f 469/5/6 446/5/6 470/5/6
f 448/2/6 449/2/6 471/2/6
f 470/7/6 447/7/6 471/7/6
f 447/2/6 448/2/6 471/2/6
f 449/2/6 450/2/6 471/2/6
f 450/2/6 451/2/6 471/2/6
f 451/2/6 452/2/6 471/2/6
f 471/2/6 452/2/6 472/2/6
f 472/2/6 452/2/6 473/2/6
f 452/5/6 453/5/6 474/5/6
f 473/2/6 452/2/6 474/2/6
f 474/5/6 453/5/6 475/5/6
f 454/5/6 455/5/6 476/5/6
f 476/5/6 455/5/6 477/5/6
f 437/7/6 457/7/6 478/7/6
f 478/7/6 457/7/6 479/7/6
f 458/7/6 459/7/6 480/7/6
f 462/2/6 463/2/6 481/2/6
f 464/2/6 465/2/6 481/2/6
f 463/2/6 464/2/6 481/2/6
f 466/2/6 467/2/6 482/2/6
f 482/2/6 467/2/6 483/2/6
f 467/1/6 468/1/6 484/1/6
f 483/2/6 467/2/6 484/2/6
f 468/5/6 469/5/6 485/5/6
f 484/1/6 468/1/6 485/1/6
f 485/5/6 469/5/6 486/5/6
f 471/2/6 472/2/6 487/2/6
f 487/2/6 472/2/6 488/2/6
f 474/2/6 475/2/6 489/2/6
f 473/2/6 474/2/6 489/2/6
f 489/2/6 475/2/6 490/2/6
f 475/5/6 453/5/6 491/5/6
f 490/2/6 475/2/6 491/2/6
f 491/5/6 453/5/6 492/5/6
f 454/5/6 476/5/6 493/5/6
f 493/5/6 476/5/6 494/5/6
f 479/7/6 480/7/6 495/7/6
f 494/5/6 476/5/6 495/5/6
f 477/7/6 478/7/6 495/7/6
f 478/7/6 479/7/6 495/7/6
f 476/7/6 477/7/6 495/7/6
f 480/7/6 459/7/6 496/7/6
f 495/7/6 480/7/6 496/7/6
f 459/4/6 460/4/6 496/4/6
f 460/4/6 461/4/6 496/4/6
f 461/6/6 421/6/6 497/6/6
f 496/4/6 461/4/6 497/4/6
f 482/2/6 483/2/6 498/2/6
f 462/2/6 481/2/6 498/2/6
f 481/2/6 482/2/6 498/2/6
f 498/2/6 483/2/6 499/2/6
f 483/1/6 484/1/6 500/1/6
f 499/2/6 483/2/6 500/2/6
f 484/5/6 485/5/6 501/5/6
f 500/1/6 484/1/6 501/1/6
f 485/7/6 486/7/6 502/7/6
f 501/5/6 485/5/6 502/5/6
f 488/2/6 489/2/6 503/2/6
f 502/7/6 486/7/6 503/7/6
f 489/2/6 490/2/6 503/2/6
f 487/2/6 488/2/6 503/2/6
f 486/2/6 487/2/6 503/2/6
f 503/2/6 490/2/6 504/2/6
f 493/5/6 494/5/6 505/5/6
f 504/2/6 490/2/6 505/2/6
f 492/5/6 493/5/6 505/5/6
f 490/5/6 491/5/6 505/5/6
f 491/5/6 492/5/6 505/5/6
f 505/5/6 494/5/6 506/5/6
f 495/7/6 496/7/6 507/7/6
f 506/5/6 494/5/6 507/5/6
f 494/7/6 495/7/6 507/7/6
f 507/7/6 496/7/6 508/7/6
f 496/6/6 497/6/6 509/6/6
f 508/7/6 496/7/6 509/7/6
f 497/6/6 421/6/6 510/6/6
f 509/6/6 497/6/6 510/6/6
f 462/2/6 498/2/6 511/2/6
f 511/2/6 498/2/6 512/2/6
f 503/2/6 504/2/6 513/2/6
f 501/2/6 502/2/6 513/2/6
f 502/2/6 503/2/6 513/2/6
f 500/2/6 501/2/6 513/2/6
f 499/2/6 500/2/6 513/2/6
f 513/2/6 504/2/6 514/2/6
f 505/5/6 506/5/6 515/5/6
f 514/2/6 504/2/6 515/2/6
f 504/5/6 505/5/6 515/5/6
f 515/5/6 506/5/6 516/5/6
f 507/7/6 508/7/6 517/7/6
f 516/5/6 506/5/6 517/5/6
f 506/7/6 507/7/6 517/7/6
f 508/6/6 509/6/6 518/6/6
f 517/7/6 508/7/6 518/7/6
f 518/6/6 509/6/6 519/6/6
f 511/6/6 512/6/6 520/6/6
f 512/6/6 513/6/6 520/6/6
f 513/2/6 514/2/6 521/2/6
f 520/6/6 513/6/6 521/6/6
f 515/5/6 516/5/6 522/5/6
f 521/2/6 514/2/6 522/2/6
f 514/5/6 515/5/6 522/5/6
f 516/6/6 517/6/6 523/6/6
f 522/5/6 516/5/6 523/5/6
f 517/6/6 518/6/6 523/6/6
f 523/6/6 518/6/6 524/6/6
f 521/6/6 522/6/6 525/6/6
f 522/6/6 523/6/6 525/6/6
f 525/6/6 523/6/6 526/6/6
f 527/8/6 528/8/6 535/8/6
f 535/8/6 528/8/6 536/8/6
f 529/8/6 530/8/6 537/8/6
f 537/8/6 530/8/6 538/8/6
f 531/8/6 532/8/6 539/8/6
f 539/8/6 532/8/6 540/8/6
f 538/8/6 530/8/6 545/8/6
f 545/8/6 530/8/6 546/8/6
f 541/8/6 542/8/6 550/8/6
f 543/8/6 544/8/6 552/8/6
f 552/8/6 544/8/6 553/8/6
f 533/8/6 534/8/6 554/8/6
f 554/8/6 534/8/6 555/8/6
f 549/8/6 550/8/6 561/8/6
f 550/8/6 542/8/6 562/8/6
f 561/8/6 550/8/6 562/8/6
f 551/8/6 552/8/6 563/8/6
f 563/8/6 552/8/6 564/8/6
f 555/8/6 556/8/6 565/8/6
f 565/8/6 556/8/6 566/8/6
f 557/8/6 558/8/6 567/8/6
f 567/8/6 558/8/6 568/8/6
f 559/8/6 560/8/6 569/8/6
f 569/8/6 560/8/6 570/8/6
f 547/8/6 548/8/6 571/8/6
f 571/8/6 548/8/6 572/8/6
f 573/8/6 574/8/6 575/8/6
f 575/8/6 574/8/6 576/8/6
