# MagicaVoxel @ Ephtracy

# group
o 

# material
mtllib enemy_001-1.mtl
usemtl palette

# normals
vn -1 0 0
vn 1 0 0
vn 0 0 1
vn 0 0 -1
vn 0 -1 0
vn 0 1 0

# texcoords
vt 0.919922 0.5
vt 0.923828 0.5
vt 0.947266 0.5

# verts
v -0.1 -0.4 1
v -0.1 -0.4 0.9
v -0.1 -0.4 0.3
v -0.1 -0.3 1.1
v -0.1 -0.3 1
v -0.1 -0.3 0.9
v -0.1 -0.3 0.8
v -0.1 -0.3 0.3
v -0.1 -0.3 0.2
v -0.1 -0.2 1.2
v -0.1 -0.2 1.1
v -0.1 -0.2 0.9
v -0.1 -0.2 0.8
v -0.1 -0.2 0.7
v -0.1 -0.2 0.4
v -0.1 -0.2 0.3
v -0.1 -0.2 0.2
v -0.1 -0.2 0.1
v -0.1 -0.1 1.2
v -0.1 -0.1 1
v -0.1 -0.1 0.8
v -0.1 -0.1 0.7
v -0.1 -0.1 0.5
v -0.1 -0.1 0.4
v -0.1 -0.1 0.3
v -0.1 -0.1 0.1
v -0.1 -0.1 0
v -0.1 0 0.7
v -0.1 0 0.5
v -0.1 0 0.4
v -0.1 0 0
v -0.1 0.1 0.5
v -0.1 0.1 0.4
v -0.1 0.2 0.9
v -0.1 0.2 0.6
v -0.1 0.2 0.5
v -0.1 0.2 0.4
v -0.1 0.3 1.4
v -0.1 0.3 1
v -0.1 0.3 0.9
v -0.1 0.3 0.6
v -0.1 0.3 0.5
v -0.1 0.3 -1.5
v -0.1 0.5 1.4
v -0.1 0.5 -1.5
v 0.1 -0.4 1
v 0.1 -0.4 0.9
v 0.1 -0.4 0.3
v 0.1 -0.3 1.1
v 0.1 -0.3 1
v 0.1 -0.3 0.9
v 0.1 -0.3 0.7
v 0.1 -0.3 0.3
v 0.1 -0.3 0.2
v 0.1 -0.2 1.2
v 0.1 -0.2 1.1
v 0.1 -0.2 0.9
v 0.1 -0.2 0.7
v 0.1 -0.2 0.5
v 0.1 -0.2 0.4
v 0.1 -0.2 0.3
v 0.1 -0.2 0.2
v 0.1 -0.2 0.1
v 0.1 -0.1 1.2
v 0.1 -0.1 1
v 0.1 -0.1 0.7
v 0.1 -0.1 0.5
v 0.1 -0.1 0.4
v 0.1 -0.1 0.3
v 0.1 -0.1 0.1
v 0.1 -0.1 0
v 0.1 0 0.4
v 0.1 0 0
v 0.1 0.1 0.5
v 0.1 0.1 0.4
v 0.1 0.2 0.9
v 0.1 0.2 0.6
v 0.1 0.2 0.5
v 0.1 0.2 0.4
v 0.1 0.3 1.4
v 0.1 0.3 1
v 0.1 0.3 0.9
v 0.1 0.3 0.6
v 0.1 0.3 0.5
v 0.1 0.3 -1.5
v 0.1 0.5 1.4
v 0.1 0.5 -1.5
v -0.1 0.3 1.4
v -0.1 0.5 1.4
v 0.1 0.3 1.4
v 0.1 0.5 1.4
v -0.1 -0.2 1.2
v -0.1 -0.1 1.2
v 0.1 -0.2 1.2
v 0.1 -0.1 1.2
v -0.1 -0.3 1.1
v -0.1 -0.2 1.1
v 0.1 -0.3 1.1
v 0.1 -0.2 1.1
v -0.1 -0.4 1
v -0.1 -0.3 1
v -0.1 -0.1 1
v -0.1 0.3 1
v 0.1 -0.4 1
v 0.1 -0.3 1
v 0.1 -0.1 1
v 0.1 0.3 1
v -0.1 0.2 0.6
v -0.1 0.3 0.6
v 0.1 0.2 0.6
v 0.1 0.3 0.6
v -0.1 -0.2 0.3
v -0.1 -0.1 0.3
v 0.1 -0.2 0.3
v 0.1 -0.1 0.3
v -0.1 0.2 0.9
v -0.1 0.3 0.9
v 0.1 0.2 0.9
v 0.1 0.3 0.9
v -0.1 0.2 0.5
v -0.1 0.3 0.5
v 0.1 0.2 0.5
v 0.1 0.3 0.5
v -0.1 -0.2 0.4
v -0.1 -0.1 0.4
v -0.1 0 0.4
v -0.1 0.1 0.4
v -0.1 0.2 0.4
v 0.1 -0.2 0.4
v 0.1 -0.1 0.4
v 0.1 0 0.4
v 0.1 0.1 0.4
v 0.1 0.2 0.4
v -0.1 -0.4 0.3
v -0.1 -0.3 0.3
v 0.1 -0.4 0.3
v 0.1 -0.3 0.3
v -0.1 -0.3 0.2
v -0.1 -0.2 0.2
v 0.1 -0.3 0.2
v 0.1 -0.2 0.2
v -0.1 -0.2 0.1
v -0.1 -0.1 0.1
v 0.1 -0.2 0.1
v 0.1 -0.1 0.1
v -0.1 -0.1 0
v -0.1 0 0
v 0.1 -0.1 0
v 0.1 0 0
v -0.1 0.3 -1.5
v -0.1 0.5 -1.5
v 0.1 0.3 -1.5
v 0.1 0.5 -1.5
v -0.1 -0.4 1
v 0.1 -0.4 1
v -0.1 -0.4 0.9
v 0.1 -0.4 0.9
v -0.1 -0.4 0.3
v 0.1 -0.4 0.3
v -0.1 -0.3 1.1
v 0.1 -0.3 1.1
v -0.1 -0.3 1
v 0.1 -0.3 1
v -0.1 -0.3 0.3
v 0.1 -0.3 0.3
v -0.1 -0.3 0.2
v 0.1 -0.3 0.2
v -0.1 -0.2 1.2
v 0.1 -0.2 1.2
v -0.1 -0.2 1.1
v 0.1 -0.2 1.1
v -0.1 -0.2 0.2
v 0.1 -0.2 0.2
v -0.1 -0.2 0.1
v 0.1 -0.2 0.1
v -0.1 -0.1 0.4
v 0.1 -0.1 0.4
v -0.1 -0.1 0.3
v 0.1 -0.1 0.3
v -0.1 -0.1 0.1
v 0.1 -0.1 0.1
v -0.1 -0.1 0
v 0.1 -0.1 0
v -0.1 0.3 1.4
v 0.1 0.3 1.4
v -0.1 0.3 1
v 0.1 0.3 1
v -0.1 0.3 0.9
v 0.1 0.3 0.9
v -0.1 0.3 0.6
v 0.1 0.3 0.6
v -0.1 0.3 0.5
v 0.1 0.3 0.5
v -0.1 0.3 -1.5
v 0.1 0.3 -1.5
v -0.1 -0.2 0.4
v 0.1 -0.2 0.4
v -0.1 -0.2 0.3
v 0.1 -0.2 0.3
v -0.1 -0.1 1.2
v 0.1 -0.1 1.2
v -0.1 -0.1 1
v 0.1 -0.1 1
v -0.1 0 0.4
v 0.1 0 0.4
v -0.1 0 0
v 0.1 0 0
v -0.1 0.2 0.9
v 0.1 0.2 0.9
v -0.1 0.2 0.6
v 0.1 0.2 0.6
v -0.1 0.2 0.5
v 0.1 0.2 0.5
v -0.1 0.2 0.4
v 0.1 0.2 0.4
v -0.1 0.5 1.4
v 0.1 0.5 1.4
v -0.1 0.5 -1.5
v 0.1 0.5 -1.5

# faces
f 5/1/1 2/1/1 1/1/1
f 6/2/1 3/2/1 2/2/1
f 6/1/1 2/1/1 5/1/1
f 7/2/1 3/2/1 6/2/1
f 8/2/1 3/2/1 7/2/1
f 11/2/1 5/2/1 4/2/1
f 11/2/1 6/2/1 5/2/1
f 12/1/1 7/1/1 6/1/1
f 12/2/1 6/2/1 11/2/1
f 13/2/1 9/2/1 8/2/1
f 13/1/1 7/1/1 12/1/1
f 13/2/1 8/2/1 7/2/1
f 14/2/1 9/2/1 13/2/1
f 15/2/1 9/2/1 14/2/1
f 16/2/1 9/2/1 15/2/1
f 17/2/1 9/2/1 16/2/1
f 19/2/1 12/2/1 11/2/1
f 19/2/1 11/2/1 10/2/1
f 19/2/1 13/2/1 12/2/1
f 20/2/1 13/2/1 19/2/1
f 21/1/1 14/1/1 13/1/1
f 21/2/1 13/2/1 20/2/1
f 22/2/1 15/2/1 14/2/1
f 22/1/1 14/1/1 21/1/1
f 23/2/1 15/2/1 22/2/1
f 24/2/1 15/2/1 23/2/1
f 25/2/1 18/2/1 17/2/1
f 25/2/1 17/2/1 16/2/1
f 26/2/1 18/2/1 25/2/1
f 28/1/1 23/1/1 22/1/1
f 28/2/1 21/2/1 20/2/1
f 28/2/1 22/2/1 21/2/1
f 29/2/1 24/2/1 23/2/1
f 29/1/1 23/1/1 28/1/1
f 29/2/1 27/2/1 26/2/1
f 29/2/1 26/2/1 25/2/1
f 29/2/1 25/2/1 24/2/1
f 30/2/1 27/2/1 29/2/1
f 31/2/1 27/2/1 30/2/1
f 32/2/1 29/2/1 28/2/1
f 32/1/1 30/1/1 29/1/1
f 33/1/1 30/1/1 32/1/1
f 34/2/1 28/2/1 20/2/1
f 34/2/1 32/2/1 28/2/1
f 34/2/1 33/2/1 32/2/1
f 35/2/1 33/2/1 34/2/1
f 36/2/1 33/2/1 35/2/1
f 37/2/1 33/2/1 36/2/1
f 39/2/1 34/2/1 20/2/1
f 40/2/1 34/2/1 39/2/1
f 41/2/1 36/2/1 35/2/1
f 42/2/1 36/2/1 41/2/1
f 44/3/1 42/3/1 41/3/1
f 44/3/1 43/3/1 42/3/1
f 44/3/1 39/3/1 38/3/1
f 44/3/1 41/3/1 40/3/1
f 44/3/1 40/3/1 39/3/1
f 45/3/1 43/3/1 44/3/1
f 46/1/2 47/1/2 50/1/2
f 47/2/2 48/2/2 51/2/2
f 50/1/2 47/1/2 51/1/2
f 51/2/2 48/2/2 52/2/2
f 52/2/2 48/2/2 53/2/2
f 49/2/2 50/2/2 56/2/2
f 50/2/2 51/2/2 56/2/2
f 51/1/2 52/1/2 57/1/2
f 56/2/2 51/2/2 57/2/2
f 53/2/2 54/2/2 58/2/2
f 57/1/2 52/1/2 58/1/2
f 52/2/2 53/2/2 58/2/2
f 58/2/2 54/2/2 59/2/2
f 59/2/2 54/2/2 60/2/2
f 60/2/2 54/2/2 61/2/2
f 61/2/2 54/2/2 62/2/2
f 56/2/2 57/2/2 64/2/2
f 55/2/2 56/2/2 64/2/2
f 57/2/2 58/2/2 64/2/2
f 64/2/2 58/2/2 65/2/2
f 58/1/2 59/1/2 66/1/2
f 65/2/2 58/2/2 66/2/2
f 59/2/2 60/2/2 67/2/2
f 66/1/2 59/1/2 67/1/2
f 67/2/2 60/2/2 68/2/2
f 62/2/2 63/2/2 69/2/2
f 61/2/2 62/2/2 69/2/2
f 69/2/2 63/2/2 70/2/2
f 67/1/2 68/1/2 72/1/2
f 70/2/2 71/2/2 72/2/2
f 69/2/2 70/2/2 72/2/2
f 68/2/2 69/2/2 72/2/2
f 72/2/2 71/2/2 73/2/2
f 66/2/2 67/2/2 74/2/2
f 65/2/2 66/2/2 74/2/2
f 67/1/2 72/1/2 74/1/2
f 74/1/2 72/1/2 75/1/2
f 65/2/2 74/2/2 76/2/2
f 74/2/2 75/2/2 76/2/2
f 76/2/2 75/2/2 77/2/2
f 77/2/2 75/2/2 78/2/2
f 78/2/2 75/2/2 79/2/2
f 65/2/2 76/2/2 81/2/2
f 81/2/2 76/2/2 82/2/2
f 77/2/2 78/2/2 83/2/2
f 83/2/2 78/2/2 84/2/2
f 83/3/2 84/3/2 86/3/2
f 84/3/2 85/3/2 86/3/2
f 80/3/2 81/3/2 86/3/2
f 82/3/2 83/3/2 86/3/2
f 81/3/2 82/3/2 86/3/2
f 86/3/2 85/3/2 87/3/2
f 90/3/3 89/3/3 88/3/3
f 91/3/3 89/3/3 90/3/3
f 94/2/3 93/2/3 92/2/3
f 95/2/3 93/2/3 94/2/3
f 98/2/3 97/2/3 96/2/3
f 99/2/3 97/2/3 98/2/3
f 104/1/3 101/1/3 100/1/3
f 105/1/3 101/1/3 104/1/3
f 106/2/3 103/2/3 102/2/3
f 107/2/3 103/2/3 106/2/3
f 110/2/3 109/2/3 108/2/3
f 111/2/3 109/2/3 110/2/3
f 114/2/3 113/2/3 112/2/3
f 115/2/3 113/2/3 114/2/3
f 116/2/4 117/2/4 118/2/4
f 118/2/4 117/2/4 119/2/4
f 120/2/4 121/2/4 122/2/4
f 122/2/4 121/2/4 123/2/4
f 124/2/4 125/2/4 129/2/4
f 129/2/4 125/2/4 130/2/4
f 126/1/4 127/1/4 131/1/4
f 127/2/4 128/2/4 132/2/4
f 131/1/4 127/1/4 132/1/4
f 132/2/4 128/2/4 133/2/4
f 134/2/4 135/2/4 136/2/4
f 136/2/4 135/2/4 137/2/4
f 138/2/4 139/2/4 140/2/4
f 140/2/4 139/2/4 141/2/4
f 142/2/4 143/2/4 144/2/4
f 144/2/4 143/2/4 145/2/4
f 146/2/4 147/2/4 148/2/4
f 148/2/4 147/2/4 149/2/4
f 150/3/4 151/3/4 152/3/4
f 152/3/4 151/3/4 153/3/4
f 156/1/5 155/1/5 154/1/5
f 157/1/5 155/1/5 156/1/5
f 158/2/5 157/2/5 156/2/5
f 159/2/5 157/2/5 158/2/5
f 162/2/5 161/2/5 160/2/5
f 163/2/5 161/2/5 162/2/5
f 166/2/5 165/2/5 164/2/5
f 167/2/5 165/2/5 166/2/5
f 170/2/5 169/2/5 168/2/5
f 171/2/5 169/2/5 170/2/5
f 174/2/5 173/2/5 172/2/5
f 175/2/5 173/2/5 174/2/5
f 178/2/5 177/2/5 176/2/5
f 179/2/5 177/2/5 178/2/5
f 182/2/5 181/2/5 180/2/5
f 183/2/5 181/2/5 182/2/5
f 186/3/5 185/3/5 184/3/5
f 187/3/5 185/3/5 186/3/5
f 190/3/5 189/3/5 188/3/5
f 191/3/5 189/3/5 190/3/5
f 194/3/5 193/3/5 192/3/5
f 195/3/5 193/3/5 194/3/5
f 196/2/6 197/2/6 198/2/6
f 198/2/6 197/2/6 199/2/6
f 200/2/6 201/2/6 202/2/6
f 202/2/6 201/2/6 203/2/6
f 204/2/6 205/2/6 206/2/6
f 206/2/6 205/2/6 207/2/6
f 208/2/6 209/2/6 210/2/6
f 210/2/6 209/2/6 211/2/6
f 212/2/6 213/2/6 214/2/6
f 214/2/6 213/2/6 215/2/6
f 216/3/6 217/3/6 218/3/6
f 218/3/6 217/3/6 219/3/6
