# MagicaVoxel @ Ephtracy

# group
o 

# material
mtllib enemy_001-2.mtl
usemtl palette

# normals
vn -1 0 0
vn 1 0 0
vn 0 0 1
vn 0 0 -1
vn 0 -1 0
vn 0 1 0

# texcoords
vt 0.845703 0.5
vt 0.880859 0.5
vt 0.884766 0.5
vt 0.908203 0.5
vt 0.916016 0.5
vt 0.962891 0.5
vt 0.974609 0.5
vt 0.978516 0.5
vt 0.982422 0.5
vt 0.986328 0.5

# verts
v -0.7 0.3 -0.2
v -0.7 0.3 -0.3
v -0.7 0.6 -0.2
v -0.7 0.6 -0.3
v -0.6 0.9 -0.1
v -0.6 0.9 -0.3
v -0.6 1.1 -0.1
v -0.6 1.1 -0.3
v -0.5 -0.3 0.3
v -0.5 -0.3 -0.4
v -0.5 0.0999999 0
v -0.5 0.0999999 -0.2
v -0.5 0.2 0.3
v -0.5 0.2 0.1
v -0.5 0.2 0
v -0.5 0.3 -0.2
v -0.5 0.3 -0.3
v -0.5 0.4 -0.2
v -0.5 0.4 -0.3
v -0.5 0.5 -0.2
v -0.5 0.5 -0.3
v -0.5 0.6 -0.2
v -0.5 0.6 -0.3
v -0.5 0.8 0.1
v -0.5 0.8 0
v -0.5 0.8 -0.2
v -0.5 0.9 0
v -0.5 0.9 -0.1
v -0.5 0.9 -0.3
v -0.5 0.9 -0.4
v -0.4 -0.9 0.3
v -0.4 -0.9 -0.4
v -0.4 -0.3 0.3
v -0.4 -0.3 -0.4
v -0.4 0.5 0.2
v -0.4 0.5 0.1
v -0.4 0.6 0.2
v -0.4 0.6 0.1
v -0.3 0.7 0.2
v -0.3 0.7 0.1
v -0.3 0.8 0.2
v -0.3 0.8 0.1
v -0.2 -1.2 0.2
v -0.2 -1.2 -0.2
v -0.2 -0.9 0.2
v -0.2 -0.9 -0.2
v -0.2 -0.1 0.2
v -0.2 -0.1 0.1
v -0.2 0 0.2
v -0.2 0 0.1
v -0.2 0.6 0.2
v -0.2 0.6 0.1
v -0.2 0.7 0.2
v -0.2 0.7 0.1
v -0.2 0.9 0
v -0.2 0.9 -0.1
v -0.2 0.9 -0.3
v -0.2 0.9 -0.4
v -0.2 1 0
v -0.2 1 -0.1
v -0.2 1 -0.3
v -0.2 1 -0.4
v -0.2 1.1 0
v -0.2 1.1 -0.1
v -0.2 1.1 -0.3
v -0.2 1.1 -0.4
v -0.2 1.2 -0.1
v -0.2 1.2 -0.3
v -0.1 -0.4 0.2
v -0.1 -0.4 0.1
v -0.1 -0.3 0.2
v -0.1 -0.3 0.1
v -0.1 0.2 0.3
v -0.1 0.2 0.1
v -0.1 0.4 0.1
v -0.1 0.4 0
v -0.1 0.5 0.3
v -0.1 0.5 0.2
v -0.1 0.5 0.1
v -0.1 0.5 0
v -0.1 1.1 0
v -0.1 1.1 -0.1
v -0.1 1.1 -0.3
v -0.1 1.1 -0.4
v -0.1 1.2 0
v -0.1 1.2 -0.1
v -0.1 1.2 -0.3
v -0.1 1.2 -0.4
v 0.1 0.0999999 -0.3
v 0.1 0.0999999 -0.4
v 0.1 0.2 -0.3
v 0.1 0.2 -0.4
v 0.2 -0.4 0.2
v 0.2 -0.4 0.1
v 0.2 -0.3 0.2
v 0.2 -0.3 0.1
v 0.2 -0.1 -0.2
v 0.2 -0.1 -0.4
v 0.2 0.0999999 -0.2
v 0.2 0.0999999 -0.4
v 0.2 0.6 -0.2
v 0.2 0.6 -0.3
v 0.2 0.8 -0.2
v 0.2 0.8 -0.3
v 0.3 -0.4 0.3
v 0.3 -0.4 0.2
v 0.3 -0.3 0.2
v 0.3 -0.3 0.1
v 0.3 -0.1 0.3
v 0.3 -0.1 0.1
v -0.5 1 -0.1
v -0.5 1 -0.3
v -0.5 1.1 -0.1
v -0.5 1.1 -0.3
v -0.3 -0.4 0.3
v -0.3 -0.4 0.1
v -0.3 0 0.3
v -0.3 0 0.1
v -0.3 0.4 0.1
v -0.3 0.4 0
v -0.3 0.5 0.1
v -0.3 0.5 0
v -0.1 -0.1 0.2
v -0.1 -0.1 0.1
v -0.1 0 0.2
v -0.1 0 0.1
v 0 -0.4 0.2
v 0 -0.4 0.1
v 0 -0.3 0.2
v 0 -0.3 0.1
v 0 -0.1 -0.3
v 0 -0.1 -0.4
v 0 0.2 -0.3
v 0 0.2 -0.4
v 0 0.3 0.3
v 0 0.3 0.2
v 0 0.4 0.2
v 0 0.5 0.3
v 0 0.5 0.2
v 0 0.5 0.1
v 0 0.8 0.2
v 0 0.8 0.1
v 0.1 -0.1 -0.2
v 0.1 -0.1 -0.3
v 0.1 0 0.3
v 0.1 0 0.1
v 0.1 0 0
v 0.1 0.0999999 -0.2
v 0.1 0.0999999 -0.3
v 0.1 0.2 0.3
v 0.1 0.2 0.1
v 0.1 0.2 0
v 0.1 0.3 0.3
v 0.1 0.3 0.2
v 0.1 0.3 0.1
v 0.1 0.3 0
v 0.1 0.4 0.2
v 0.1 0.4 0.1
v 0.1 0.4 0
v 0.1 0.4 -0.3
v 0.1 0.4 -0.4
v 0.1 0.5 0.2
v 0.1 0.5 0.1
v 0.1 0.5 0
v 0.1 0.6 0.1
v 0.1 0.6 -0.2
v 0.1 0.6 -0.3
v 0.1 0.8 0.1
v 0.1 0.8 0
v 0.1 0.8 -0.2
v 0.1 0.9 0
v 0.1 0.9 -0.4
v 0.1 1 0
v 0.1 1 -0.4
v 0.1 1.2 0
v 0.1 1.2 -0.4
v 0.2 -1.2 0.2
v 0.2 -1.2 -0.2
v 0.2 -0.9 0.2
v 0.2 -0.9 -0.2
v 0.2 0.0999999 -0.2
v 0.2 0.0999999 -0.3
v 0.2 0.2 -0.2
v 0.2 0.2 -0.3
v 0.2 0.4 0
v 0.2 0.4 -0.1
v 0.2 0.4 -0.2
v 0.2 0.5 0.1
v 0.2 0.5 0
v 0.2 0.5 -0.1
v 0.2 0.6 0.1
v 0.2 0.6 -0.2
v 0.3 -0.1 -0.2
v 0.3 -0.1 -0.3
v 0.3 0.0999999 0
v 0.3 0.0999999 -0.2
v 0.3 0.0999999 -0.3
v 0.3 0.2 -0.2
v 0.3 0.2 -0.3
v 0.3 0.3 0.1
v 0.3 0.3 0
v 0.3 0.3 -0.1
v 0.3 0.3 -0.3
v 0.3 0.4 0.1
v 0.3 0.4 -0.1
v 0.3 0.5 -0.2
v 0.3 0.5 -0.3
v 0.3 0.8 -0.2
v 0.3 0.8 -0.3
v 0.4 -0.9 0.3
v 0.4 -0.9 -0.4
v 0.4 -0.7 0.3
v 0.4 -0.7 0.2
v 0.4 -0.6 0.3
v 0.4 -0.6 0.2
v 0.4 -0.3 0.3
v 0.4 -0.3 -0.4
v 0.4 -0.1 -0.1
v 0.4 -0.1 -0.2
v 0.4 -0.1 -0.3
v 0.4 -0.1 -0.4
v 0.4 0.0999999 -0.1
v 0.4 0.0999999 -0.2
v 0.4 0.3 -0.1
v 0.4 0.3 -0.3
v 0.4 0.4 -0.1
v 0.4 0.4 -0.2
v 0.4 0.4 -0.3
v 0.4 0.4 -0.4
v 0.4 0.5 -0.2
v 0.4 0.5 -0.3
v 0.5 -0.3 0.3
v 0.5 -0.3 -0.4
v 0.5 -0.1 0.3
v 0.5 -0.1 0.1
v 0.5 -0.1 -0.1
v 0.5 -0.1 -0.4
v 0.5 0 0.1
v 0.5 0 0
v 0.5 0.0999999 0
v 0.5 0.0999999 -0.1
v -0.5 -0.3 0.3
v -0.5 0.2 0.3
v -0.4 -0.9 0.3
v -0.4 -0.3 0.3
v -0.3 -0.4 0.3
v -0.3 0 0.3
v -0.1 0.2 0.3
v -0.1 0.5 0.3
v 0 0.3 0.3
v 0 0.5 0.3
v 0.1 -0.7 0.3
v 0.1 -0.6 0.3
v 0.1 0 0.3
v 0.1 0.2 0.3
v 0.1 0.3 0.3
v 0.3 -0.4 0.3
v 0.3 -0.1 0.3
v 0.4 -0.9 0.3
v 0.4 -0.7 0.3
v 0.4 -0.6 0.3
v 0.4 -0.3 0.3
v 0.5 -0.3 0.3
v 0.5 -0.1 0.3
v -0.4 0.5 0.2
v -0.4 0.6 0.2
v -0.3 0.7 0.2
v -0.3 0.8 0.2
v -0.2 -1.2 0.2
v -0.2 -0.9 0.2
v -0.2 -0.1 0.2
v -0.2 0 0.2
v -0.2 0.6 0.2
v -0.2 0.7 0.2
v -0.1 -0.4 0.2
v -0.1 -0.3 0.2
v -0.1 -0.1 0.2
v -0.1 0 0.2
v -0.1 0.5 0.2
v -0.1 0.6 0.2
v 0 -0.4 0.2
v 0 -0.3 0.2
v 0 0.3 0.2
v 0 0.4 0.2
v 0 0.5 0.2
v 0 0.8 0.2
v 0.1 0.3 0.2
v 0.1 0.4 0.2
v 0.1 0.5 0.2
v 0.2 -1.2 0.2
v 0.2 -0.9 0.2
v 0.2 -0.4 0.2
v 0.2 -0.3 0.2
v 0.3 -0.4 0.2
v 0.3 -0.3 0.2
v -0.5 0.2 0.1
v -0.5 0.8 0.1
v -0.4 0.5 0.1
v -0.4 0.6 0.1
v -0.3 -0.4 0.1
v -0.3 0 0.1
v -0.3 0.4 0.1
v -0.3 0.5 0.1
v -0.3 0.7 0.1
v -0.3 0.8 0.1
v -0.2 -0.1 0.1
v -0.2 0 0.1
v -0.2 0.6 0.1
v -0.2 0.7 0.1
v -0.1 -0.4 0.1
v -0.1 -0.3 0.1
v -0.1 -0.1 0.1
v -0.1 0 0.1
v -0.1 0.2 0.1
v -0.1 0.4 0.1
v 0 -0.4 0.1
v 0 -0.3 0.1
v 0 0.5 0.1
v 0 0.8 0.1
v 0.1 -0.1 0.1
v 0.1 0 0.1
v 0.1 0.3 0.1
v 0.1 0.4 0.1
v 0.1 0.5 0.1
v 0.1 0.6 0.1
v 0.1 0.8 0.1
v 0.2 -0.4 0.1
v 0.2 -0.3 0.1
v 0.2 0.5 0.1
v 0.2 0.6 0.1
v 0.3 -0.3 0.1
v 0.3 -0.1 0.1
v 0.3 0.3 0.1
v 0.3 0.4 0.1
v 0.5 -0.1 0.1
v 0.5 0 0.1
v -0.5 0.8 0
v -0.5 0.9 0
v -0.3 0.4 0
v -0.3 0.5 0
v -0.2 0.9 0
v -0.2 1 0
v -0.2 1.1 0
v -0.1 0.4 0
v -0.1 0.5 0
v -0.1 1.1 0
v -0.1 1.2 0
v 0 0.8 0
v 0.1 0 0
v 0.1 0.2 0
v 0.1 0.3 0
v 0.1 0.4 0
v 0.1 0.5 0
v 0.1 0.8 0
v 0.1 0.9 0
v 0.1 1 0
v 0.1 1.2 0
v 0.2 0.4 0
v 0.2 0.5 0
v 0.3 0.0999999 0
v 0.3 0.3 0
v 0.5 0 0
v 0.5 0.0999999 0
v -0.6 0.9 -0.1
v -0.6 1.1 -0.1
v -0.5 0.9 -0.1
v -0.5 1 -0.1
v -0.5 1.1 -0.1
v -0.2 0.9 -0.1
v -0.2 1 -0.1
v -0.2 1.1 -0.1
v -0.2 1.2 -0.1
v -0.1 1.1 -0.1
v -0.1 1.2 -0.1
v 0.3 0.3 -0.1
v 0.3 0.4 -0.1
v 0.4 0.3 -0.1
v 0.4 0.4 -0.1
v -0.7 0.3 -0.2
v -0.7 0.6 -0.2
v -0.6 0.4 -0.2
v -0.6 0.5 -0.2
v -0.5 0.3 -0.2
v -0.5 0.4 -0.2
v -0.5 0.5 -0.2
v -0.5 0.6 -0.2
v 0.2 0.4 -0.2
v 0.2 0.6 -0.2
v 0.2 0.8 -0.2
v 0.3 0.5 -0.2
v 0.3 0.8 -0.2
v 0.4 0.4 -0.2
v 0.4 0.5 -0.2
v 0.2 0.0999999 -0.3
v 0.2 0.2 -0.3
v 0.3 -0.1 -0.3
v 0.3 0.0999999 -0.3
v 0.3 0.2 -0.3
v 0.3 0.3 -0.3
v 0.4 -0.1 -0.3
v 0.4 0.3 -0.3
v 0.4 -0.1 -0.1
v 0.4 0.0999999 -0.1
v 0.5 -0.1 -0.1
v 0.5 0.0999999 -0.1
v -0.2 -1.2 -0.2
v -0.2 -0.9 -0.2
v 0.1 -0.1 -0.2
v 0.1 0.0999999 -0.2
v 0.2 -1.2 -0.2
v 0.2 -0.9 -0.2
v 0.2 -0.1 -0.2
v 0.2 0.0999999 -0.2
v 0.2 0.2 -0.2
v 0.3 -0.1 -0.2
v 0.3 0.0999999 -0.2
v 0.3 0.2 -0.2
v 0.4 -0.1 -0.2
v 0.4 0.0999999 -0.2
v -0.7 0.3 -0.3
v -0.7 0.6 -0.3
v -0.6 0.4 -0.3
v -0.6 0.5 -0.3
v -0.6 0.9 -0.3
v -0.6 1.1 -0.3
v -0.5 0.3 -0.3
v -0.5 0.4 -0.3
v -0.5 0.5 -0.3
v -0.5 0.6 -0.3
v -0.5 0.9 -0.3
v -0.5 1 -0.3
v -0.5 1.1 -0.3
v -0.2 0.9 -0.3
v -0.2 1 -0.3
v -0.2 1.1 -0.3
v -0.2 1.2 -0.3
v -0.1 1.1 -0.3
v -0.1 1.2 -0.3
v 0 -0.1 -0.3
v 0 0.2 -0.3
v 0.1 -0.1 -0.3
v 0.1 0.0999999 -0.3
v 0.1 0.2 -0.3
v 0.1 0.4 -0.3
v 0.1 0.6 -0.3
v 0.2 0.4 -0.3
v 0.2 0.6 -0.3
v 0.2 0.8 -0.3
v 0.3 0.5 -0.3
v 0.3 0.8 -0.3
v 0.4 0.4 -0.3
v 0.4 0.5 -0.3
v -0.5 -0.3 -0.4
v -0.5 0.9 -0.4
v -0.4 -0.9 -0.4
v -0.4 -0.3 -0.4
v -0.2 0.9 -0.4
v -0.2 1 -0.4
v -0.2 1.1 -0.4
v -0.1 1.1 -0.4
v -0.1 1.2 -0.4
v 0 -0.1 -0.4
v 0 0.2 -0.4
v 0.1 0.0999999 -0.4
v 0.1 0.2 -0.4
v 0.1 0.4 -0.4
v 0.1 0.9 -0.4
v 0.1 1 -0.4
v 0.1 1.2 -0.4
v 0.2 -0.1 -0.4
v 0.2 0.0999999 -0.4
v 0.2 0.2 -0.4
v 0.2 0.4 -0.4
v 0.4 -0.9 -0.4
v 0.4 -0.3 -0.4
v 0.4 -0.1 -0.4
v 0.4 0.4 -0.4
v 0.5 -0.3 -0.4
v 0.5 -0.1 -0.4
v -0.2 -1.2 0.2
v 0.2 -1.2 0.2
v -0.2 -1.2 -0.2
v 0.2 -1.2 -0.2
v -0.4 -0.9 0.3
v 0.4 -0.9 0.3
v -0.2 -0.9 0.2
v 0.2 -0.9 0.2
v -0.2 -0.9 -0.2
v 0.2 -0.9 -0.2
v -0.4 -0.9 -0.4
v 0.4 -0.9 -0.4
v -0.5 -0.3 0.3
v -0.4 -0.3 0.3
v 0.4 -0.3 0.3
v 0.5 -0.3 0.3
v -0.5 -0.3 -0.4
v -0.4 -0.3 -0.4
v 0.4 -0.3 -0.4
v 0.5 -0.3 -0.4
v -0.2 -0.1 0.2
v -0.1 -0.1 0.2
v -0.2 -0.1 0.1
v -0.1 -0.1 0.1
v -0.3 0 0.3
v 0.1 0 0.3
v -0.2 0 0.2
v -0.1 0 0.2
v -0.3 0 0.1
v -0.2 0 0.1
v -0.1 0 0.1
v 0.1 0 0.1
v 0.1 0.0999999 -0.2
v 0.2 0.0999999 -0.2
v 0.1 0.0999999 -0.3
v 0.1 0.0999999 -0.4
v 0.2 0.0999999 -0.4
v 0.2 0.2 -0.2
v 0.3 0.2 -0.2
v 0 0.2 -0.3
v 0.1 0.2 -0.3
v 0.2 0.2 -0.3
v 0.3 0.2 -0.3
v 0 0.2 -0.4
v 0.1 0.2 -0.4
v 0.1 0.3 0.1
v 0.3 0.3 0.1
v 0.1 0.3 0
v 0.3 0.3 0
v 0.3 0.3 -0.1
v 0.4 0.3 -0.1
v -0.7 0.3 -0.2
v -0.5 0.3 -0.2
v -0.7 0.3 -0.3
v -0.5 0.3 -0.3
v 0.3 0.3 -0.3
v 0.4 0.3 -0.3
v -0.4 0.5 0.2
v -0.1 0.5 0.2
v -0.4 0.5 0.1
v -0.3 0.5 0.1
v -0.1 0.5 0.1
v 0.1 0.5 0.1
v 0.2 0.5 0.1
v -0.3 0.5 0
v -0.1 0.5 0
v 0.1 0.5 0
v 0.2 0.5 0
v -0.3 0.7 0.2
v -0.2 0.7 0.2
v -0.3 0.7 0.1
v -0.2 0.7 0.1
v -0.6 0.9 -0.1
v -0.5 0.9 -0.1
v -0.6 0.9 -0.3
v -0.5 0.9 -0.3
v -0.3 -0.4 0.3
v 0.3 -0.4 0.3
v -0.1 -0.4 0.2
v 0 -0.4 0.2
v 0.2 -0.4 0.2
v 0.3 -0.4 0.2
v -0.3 -0.4 0.1
v -0.1 -0.4 0.1
v 0 -0.4 0.1
v 0.2 -0.4 0.1
v -0.1 -0.3 0.2
v 0 -0.3 0.2
v 0.2 -0.3 0.2
v 0.3 -0.3 0.2
v -0.1 -0.3 0.1
v 0 -0.3 0.1
v 0.2 -0.3 0.1
v 0.3 -0.3 0.1
v 0.3 -0.1 0.3
v 0.5 -0.1 0.3
v 0.3 -0.1 0.1
v 0.5 -0.1 0.1
v 0.4 -0.1 -0.1
v 0.5 -0.1 -0.1
v 0.1 -0.1 -0.2
v 0.2 -0.1 -0.2
v 0.3 -0.1 -0.2
v 0.4 -0.1 -0.2
v 0 -0.1 -0.3
v 0.1 -0.1 -0.3
v 0.3 -0.1 -0.3
v 0.4 -0.1 -0.3
v 0 -0.1 -0.4
v 0.2 -0.1 -0.4
v 0.4 -0.1 -0.4
v 0.5 -0.1 -0.4
v 0.1 0 0.1
v 0.5 0 0.1
v 0.1 0 0
v 0.5 0 0
v 0.3 0.0999999 0
v 0.5 0.0999999 0
v 0.4 0.0999999 -0.1
v 0.5 0.0999999 -0.1
v 0.2 0.0999999 -0.2
v 0.3 0.0999999 -0.2
v 0.4 0.0999999 -0.2
v 0.2 0.0999999 -0.3
v 0.3 0.0999999 -0.3
v -0.5 0.2 0.3
v -0.1 0.2 0.3
v -0.5 0.2 0.1
v -0.1 0.2 0.1
v 0 0.3 0.3
v 0.1 0.3 0.3
v 0 0.3 0.2
v 0.1 0.3 0.2
v -0.3 0.4 0.1
v -0.1 0.4 0.1
v 0.1 0.4 0.1
v 0.3 0.4 0.1
v -0.3 0.4 0
v -0.1 0.4 0
v 0.1 0.4 0
v 0.2 0.4 0
v 0.2 0.4 -0.1
v 0.3 0.4 -0.1
v 0.4 0.4 -0.1
v 0.2 0.4 -0.2
v 0.4 0.4 -0.2
v 0.1 0.4 -0.3
v 0.2 0.4 -0.3
v 0.4 0.4 -0.3
v 0.1 0.4 -0.4
v 0.2 0.4 -0.4
v 0.4 0.4 -0.4
v -0.1 0.5 0.3
v 0 0.5 0.3
v -0.1 0.5 0.2
v 0 0.5 0.2
v 0.1 0.5 0.2
v 0 0.5 0.1
v 0.1 0.5 0.1
v 0.3 0.5 -0.2
v 0.4 0.5 -0.2
v 0.3 0.5 -0.3
v 0.4 0.5 -0.3
v -0.4 0.6 0.2
v -0.2 0.6 0.2
v -0.4 0.6 0.1
v -0.2 0.6 0.1
v 0.1 0.6 0.1
v 0.2 0.6 0.1
v -0.7 0.6 -0.2
v -0.5 0.6 -0.2
v 0.1 0.6 -0.2
v 0.2 0.6 -0.2
v -0.7 0.6 -0.3
v -0.5 0.6 -0.3
v 0.1 0.6 -0.3
v 0.2 0.6 -0.3
v -0.3 0.8 0.2
v 0 0.8 0.2
v -0.5 0.8 0.1
v -0.3 0.8 0.1
v 0 0.8 0.1
v 0.1 0.8 0.1
v -0.5 0.8 0
v 0 0.8 0
v 0.1 0.8 0
v 0.2 0.8 -0.2
v 0.3 0.8 -0.2
v 0.2 0.8 -0.3
v 0.3 0.8 -0.3
v -0.5 0.9 0
v -0.2 0.9 0
v -0.5 0.9 -0.1
v -0.2 0.9 -0.1
v -0.5 0.9 -0.3
v -0.2 0.9 -0.3
v -0.5 0.9 -0.4
v -0.2 0.9 -0.4
v -0.5 1 -0.1
v -0.2 1 -0.1
v -0.5 1 -0.3
v -0.2 1 -0.3
v -0.2 1.1 0
v -0.1 1.1 0
v -0.6 1.1 -0.1
v -0.5 1.1 -0.1
v -0.2 1.1 -0.1
v -0.1 1.1 -0.1
v -0.6 1.1 -0.3
v -0.5 1.1 -0.3
v -0.2 1.1 -0.3
v -0.1 1.1 -0.3
v -0.2 1.1 -0.4
v -0.1 1.1 -0.4
v -0.1 1.2 0
v 0.1 1.2 0
v -0.2 1.2 -0.1
v -0.1 1.2 -0.1
v -0.2 1.2 -0.3
v -0.1 1.2 -0.3
v -0.1 1.2 -0.4
v 0.1 1.2 -0.4

# faces
f 3/7/1 2/7/1 1/7/1
f 4/7/1 2/7/1 3/7/1
f 7/10/1 6/10/1 5/10/1
f 8/10/1 6/10/1 7/10/1
f 11/2/1 10/2/1 9/2/1
f 12/2/1 10/2/1 11/2/1
f 13/2/1 11/2/1 9/2/1
f 14/2/1 11/2/1 13/2/1
f 15/7/1 12/7/1 11/7/1
f 15/2/1 11/2/1 14/2/1
f 16/2/1 10/2/1 12/2/1
f 16/7/1 12/7/1 15/7/1
f 16/7/1 15/7/1 14/7/1
f 17/2/1 10/2/1 16/2/1
f 18/7/1 16/7/1 14/7/1
f 19/2/1 10/2/1 17/2/1
f 20/7/1 18/7/1 14/7/1
f 21/2/1 10/2/1 19/2/1
f 22/7/1 20/7/1 14/7/1
f 23/2/1 10/2/1 21/2/1
f 24/7/1 22/7/1 14/7/1
f 25/7/1 22/7/1 24/7/1
f 26/2/1 23/2/1 22/2/1
f 26/7/1 22/7/1 25/7/1
f 27/2/1 26/2/1 25/2/1
f 28/2/1 26/2/1 27/2/1
f 29/2/1 23/2/1 26/2/1
f 29/2/1 26/2/1 28/2/1
f 29/2/1 10/2/1 23/2/1
f 30/2/1 10/2/1 29/2/1
f 33/2/1 32/2/1 31/2/1
f 34/2/1 32/2/1 33/2/1
f 37/1/1 36/1/1 35/1/1
f 38/1/1 36/1/1 37/1/1
f 41/10/1 40/10/1 39/10/1
f 42/10/1 40/10/1 41/10/1
f 45/2/1 44/2/1 43/2/1
f 46/2/1 44/2/1 45/2/1
f 49/10/1 48/10/1 47/10/1
f 50/10/1 48/10/1 49/10/1
f 53/10/1 52/10/1 51/10/1
f 54/10/1 52/10/1 53/10/1
f 59/5/1 56/5/1 55/5/1
f 60/5/1 56/5/1 59/5/1
f 61/5/1 58/5/1 57/5/1
f 62/5/1 58/5/1 61/5/1
f 63/4/1 60/4/1 59/4/1
f 63/4/1 61/4/1 60/4/1
f 63/4/1 62/4/1 61/4/1
f 64/4/1 62/4/1 63/4/1
f 65/4/1 62/4/1 64/4/1
f 66/4/1 62/4/1 65/4/1
f 67/4/1 65/4/1 64/4/1
f 68/4/1 65/4/1 67/4/1
f 71/10/1 70/10/1 69/10/1
f 72/10/1 70/10/1 71/10/1
f 75/9/1 74/9/1 73/9/1
f 77/9/1 75/9/1 73/9/1
f 78/9/1 75/9/1 77/9/1
f 79/7/1 76/7/1 75/7/1
f 79/9/1 75/9/1 78/9/1
f 80/7/1 76/7/1 79/7/1
f 85/4/1 82/4/1 81/4/1
f 86/4/1 82/4/1 85/4/1
f 87/4/1 84/4/1 83/4/1
f 88/4/1 84/4/1 87/4/1
f 91/10/1 90/10/1 89/10/1
f 92/10/1 90/10/1 91/10/1
f 95/10/1 94/10/1 93/10/1
f 96/10/1 94/10/1 95/10/1
f 99/10/1 98/10/1 97/10/1
f 100/10/1 98/10/1 99/10/1
f 103/10/1 102/10/1 101/10/1
f 104/10/1 102/10/1 103/10/1
f 107/2/1 106/2/1 105/2/1
f 109/2/1 107/2/1 105/2/1
f 109/2/1 108/2/1 107/2/1
f 110/2/1 108/2/1 109/2/1
f 111/10/2 112/10/2 113/10/2
f 113/10/2 112/10/2 114/10/2
f 115/2/2 116/2/2 117/2/2
f 117/2/2 116/2/2 118/2/2
f 119/7/2 120/7/2 121/7/2
f 121/7/2 120/7/2 122/7/2
f 123/10/2 124/10/2 125/10/2
f 125/10/2 124/10/2 126/10/2
f 127/10/2 128/10/2 129/10/2
f 129/10/2 128/10/2 130/10/2
f 131/2/2 132/2/2 133/2/2
f 133/2/2 132/2/2 134/2/2
f 135/9/2 136/9/2 137/9/2
f 135/9/2 137/9/2 138/9/2
f 138/9/2 137/9/2 139/9/2
f 139/10/2 140/10/2 141/10/2
f 141/10/2 140/10/2 142/10/2
f 143/2/2 144/2/2 148/2/2
f 148/2/2 144/2/2 149/2/2
f 146/2/2 147/2/2 150/2/2
f 145/2/2 146/2/2 150/2/2
f 150/2/2 147/2/2 151/2/2
f 151/2/2 147/2/2 152/2/2
f 150/9/2 151/9/2 153/9/2
f 153/9/2 151/9/2 154/9/2
f 151/7/2 152/7/2 155/7/2
f 154/9/2 151/9/2 155/9/2
f 155/7/2 152/7/2 156/7/2
f 154/9/2 155/9/2 157/9/2
f 157/9/2 155/9/2 158/9/2
f 157/10/2 158/10/2 162/10/2
f 158/7/2 159/7/2 163/7/2
f 162/10/2 158/10/2 163/10/2
f 163/7/2 159/7/2 164/7/2
f 160/2/2 161/2/2 167/2/2
f 165/10/2 166/10/2 168/10/2
f 168/10/2 166/10/2 169/10/2
f 166/2/2 167/2/2 170/2/2
f 169/10/2 166/10/2 170/10/2
f 169/2/2 170/2/2 171/2/2
f 170/2/2 167/2/2 172/2/2
f 171/2/2 170/2/2 172/2/2
f 167/2/2 161/2/2 172/2/2
f 171/5/2 172/5/2 173/5/2
f 173/5/2 172/5/2 174/5/2
f 173/4/2 174/4/2 175/4/2
f 175/4/2 174/4/2 176/4/2
f 177/2/2 178/2/2 179/2/2
f 179/2/2 178/2/2 180/2/2
f 181/10/2 182/10/2 183/10/2
f 183/10/2 182/10/2 184/10/2
f 185/6/2 186/6/2 189/6/2
f 186/10/2 187/10/2 190/10/2
f 189/6/2 186/6/2 190/6/2
f 188/10/2 189/10/2 191/10/2
f 189/10/2 190/10/2 191/10/2
f 190/10/2 187/10/2 192/10/2
f 191/10/2 190/10/2 192/10/2
f 193/10/2 194/10/2 196/10/2
f 196/10/2 194/10/2 197/10/2
f 195/10/2 196/10/2 198/10/2
f 195/10/2 198/10/2 201/10/2
f 198/10/2 199/10/2 201/10/2
f 201/10/2 199/10/2 202/10/2
f 202/10/2 199/10/2 203/10/2
f 200/10/2 201/10/2 204/10/2
f 201/10/2 202/10/2 204/10/2
f 204/10/2 202/10/2 205/10/2
f 206/10/2 207/10/2 208/10/2
f 208/10/2 207/10/2 209/10/2
f 210/2/2 211/2/2 212/2/2
f 212/2/2 211/2/2 213/2/2
f 212/3/2 213/3/2 214/3/2
f 213/2/2 211/2/2 215/2/2
f 214/3/2 213/3/2 215/3/2
f 214/2/2 215/2/2 216/2/2
f 215/2/2 211/2/2 217/2/2
f 216/2/2 215/2/2 217/2/2
f 218/10/2 219/10/2 222/10/2
f 222/10/2 219/10/2 223/10/2
f 220/10/2 221/10/2 225/10/2
f 224/10/2 225/10/2 226/10/2
f 226/10/2 225/10/2 227/10/2
f 225/10/2 221/10/2 228/10/2
f 227/10/2 225/10/2 228/10/2
f 228/10/2 221/10/2 229/10/2
f 227/10/2 228/10/2 230/10/2
f 230/10/2 228/10/2 231/10/2
f 232/2/2 233/2/2 234/2/2
f 234/2/2 233/2/2 235/2/2
f 235/2/2 233/2/2 236/2/2
f 236/2/2 233/2/2 237/2/2
f 235/10/2 236/10/2 238/10/2
f 238/10/2 236/10/2 239/10/2
f 239/10/2 236/10/2 240/10/2
f 240/10/2 236/10/2 241/10/2
f 245/2/3 243/2/3 242/2/3
f 246/2/3 245/2/3 244/2/3
f 247/2/3 243/2/3 245/2/3
f 247/2/3 245/2/3 246/2/3
f 248/2/3 243/2/3 247/2/3
f 250/9/3 249/9/3 248/9/3
f 251/9/3 249/9/3 250/9/3
f 252/2/3 246/2/3 244/2/3
f 253/2/3 246/2/3 252/2/3
f 254/2/3 248/2/3 247/2/3
f 255/9/3 250/9/3 248/9/3
f 255/2/3 248/2/3 254/2/3
f 256/9/3 250/9/3 255/9/3
f 257/2/3 246/2/3 253/2/3
f 259/2/3 252/2/3 244/2/3
f 260/3/3 253/3/3 252/3/3
f 260/2/3 252/2/3 259/2/3
f 261/2/3 258/2/3 257/2/3
f 261/3/3 253/3/3 260/3/3
f 261/2/3 257/2/3 253/2/3
f 262/2/3 258/2/3 261/2/3
f 263/2/3 258/2/3 262/2/3
f 264/2/3 258/2/3 263/2/3
f 273/1/3 266/1/3 265/1/3
f 274/10/3 268/10/3 267/10/3
f 277/10/3 272/10/3 271/10/3
f 278/10/3 272/10/3 277/10/3
f 279/1/3 273/1/3 265/1/3
f 280/10/3 274/10/3 273/10/3
f 280/1/3 273/1/3 279/1/3
f 281/10/3 276/10/3 275/10/3
f 282/10/3 276/10/3 281/10/3
f 285/10/3 280/10/3 279/10/3
f 286/10/3 274/10/3 280/10/3
f 286/10/3 268/10/3 274/10/3
f 286/10/3 280/10/3 285/10/3
f 287/9/3 284/9/3 283/9/3
f 288/10/3 285/10/3 284/10/3
f 288/9/3 284/9/3 287/9/3
f 289/10/3 285/10/3 288/10/3
f 290/2/3 270/2/3 269/2/3
f 291/2/3 270/2/3 290/2/3
f 294/10/3 293/10/3 292/10/3
f 295/10/3 293/10/3 294/10/3
f 298/7/3 297/7/3 296/7/3
f 299/7/3 297/7/3 298/7/3
f 302/7/3 298/7/3 296/7/3
f 303/7/3 298/7/3 302/7/3
f 304/7/3 297/7/3 299/7/3
f 305/7/3 297/7/3 304/7/3
f 306/6/3 301/6/3 300/6/3
f 307/6/3 301/6/3 306/6/3
f 308/7/3 304/7/3 299/7/3
f 309/7/3 304/7/3 308/7/3
f 310/6/3 306/6/3 300/6/3
f 311/6/3 306/6/3 310/6/3
f 312/6/3 306/6/3 311/6/3
f 314/7/3 302/7/3 296/7/3
f 315/7/3 302/7/3 314/7/3
f 317/6/3 313/6/3 312/6/3
f 317/6/3 312/6/3 311/6/3
f 320/6/3 313/6/3 317/6/3
f 320/6/3 317/6/3 316/6/3
f 321/6/3 313/6/3 320/6/3
f 324/10/3 319/10/3 318/10/3
f 325/10/3 319/10/3 324/10/3
f 326/10/3 319/10/3 325/10/3
f 327/6/3 320/6/3 316/6/3
f 328/6/3 320/6/3 327/6/3
f 329/10/3 325/10/3 324/10/3
f 330/10/3 325/10/3 329/10/3
f 331/6/3 320/6/3 328/6/3
f 332/10/3 321/10/3 320/10/3
f 332/6/3 320/6/3 331/6/3
f 333/10/3 323/10/3 322/10/3
f 334/10/3 323/10/3 333/10/3
f 335/10/3 321/10/3 332/10/3
f 336/10/3 321/10/3 335/10/3
f 341/2/3 338/2/3 337/2/3
f 344/6/3 340/6/3 339/6/3
f 345/6/3 340/6/3 344/6/3
f 346/4/3 343/4/3 342/4/3
f 348/2/3 341/2/3 337/2/3
f 354/2/3 341/2/3 348/2/3
f 355/5/3 342/5/3 341/5/3
f 355/2/3 341/2/3 354/2/3
f 356/4/3 347/4/3 346/4/3
f 356/5/3 342/5/3 355/5/3
f 356/4/3 346/4/3 342/4/3
f 357/4/3 347/4/3 356/4/3
f 358/6/3 353/6/3 352/6/3
f 359/6/3 353/6/3 358/6/3
f 360/10/3 351/10/3 350/10/3
f 360/10/3 350/10/3 349/10/3
f 361/10/3 351/10/3 360/10/3
f 362/10/3 360/10/3 349/10/3
f 363/10/3 360/10/3 362/10/3
f 366/10/3 365/10/3 364/10/3
f 367/10/3 365/10/3 366/10/3
f 368/10/3 365/10/3 367/10/3
f 369/10/3 367/10/3 366/10/3
f 370/10/3 367/10/3 369/10/3
f 373/4/3 372/4/3 371/4/3
f 374/4/3 372/4/3 373/4/3
f 377/10/3 376/10/3 375/10/3
f 378/10/3 376/10/3 377/10/3
f 381/7/3 380/7/3 379/7/3
f 382/7/3 380/7/3 381/7/3
f 383/7/3 381/7/3 379/7/3
f 384/8/3 382/8/3 381/8/3
f 384/7/3 381/7/3 383/7/3
f 385/7/3 380/7/3 382/7/3
f 385/8/3 382/8/3 384/8/3
f 386/7/3 380/7/3 385/7/3
f 390/10/3 388/10/3 387/10/3
f 390/10/3 389/10/3 388/10/3
f 391/10/3 389/10/3 390/10/3
f 392/10/3 390/10/3 387/10/3
f 393/10/3 390/10/3 392/10/3
f 397/10/3 395/10/3 394/10/3
f 398/10/3 395/10/3 397/10/3
f 400/10/3 397/10/3 396/10/3
f 400/10/3 399/10/3 398/10/3
f 400/10/3 398/10/3 397/10/3
f 401/10/3 399/10/3 400/10/3
f 402/10/4 403/10/4 404/10/4
f 404/10/4 403/10/4 405/10/4
f 406/2/4 407/2/4 410/2/4
f 410/2/4 407/2/4 411/2/4
f 408/2/4 409/2/4 412/2/4
f 412/2/4 409/2/4 413/2/4
f 413/10/4 414/10/4 416/10/4
f 416/10/4 414/10/4 417/10/4
f 415/10/4 416/10/4 418/10/4
f 418/10/4 416/10/4 419/10/4
f 420/7/4 421/7/4 422/7/4
f 422/7/4 421/7/4 423/7/4
f 420/7/4 422/7/4 426/7/4
f 422/8/4 423/8/4 427/8/4
f 426/7/4 422/7/4 427/7/4
f 423/7/4 421/7/4 428/7/4
f 427/8/4 423/8/4 428/8/4
f 428/7/4 421/7/4 429/7/4
f 424/10/4 425/10/4 430/10/4
f 430/10/4 425/10/4 431/10/4
f 431/10/4 425/10/4 432/10/4
f 430/10/4 431/10/4 433/10/4
f 433/10/4 431/10/4 434/10/4
f 435/4/4 436/4/4 437/4/4
f 437/4/4 436/4/4 438/4/4
f 439/2/4 440/2/4 441/2/4
f 441/2/4 440/2/4 442/2/4
f 442/2/4 440/2/4 443/2/4
f 444/2/4 445/2/4 446/2/4
f 446/2/4 445/2/4 447/2/4
f 446/10/4 447/10/4 449/10/4
f 447/10/4 448/10/4 449/10/4
f 449/10/4 448/10/4 450/10/4
f 446/10/4 449/10/4 451/10/4
f 451/10/4 449/10/4 452/10/4
f 453/2/4 454/2/4 456/2/4
f 456/2/4 454/2/4 457/2/4
f 455/2/4 456/2/4 457/2/4
f 458/4/4 459/4/4 460/4/4
f 455/2/4 457/2/4 462/2/4
f 462/2/4 457/2/4 463/2/4
f 463/2/4 457/2/4 465/2/4
f 465/2/4 457/2/4 466/2/4
f 457/5/4 458/5/4 467/5/4
f 466/2/4 457/2/4 467/2/4
f 460/4/4 461/4/4 468/4/4
f 467/5/4 458/5/4 468/5/4
f 458/4/4 460/4/4 468/4/4
f 468/4/4 461/4/4 469/4/4
f 455/2/4 462/2/4 470/2/4
f 464/10/4 465/10/4 471/10/4
f 465/2/4 466/2/4 472/2/4
f 471/10/4 465/10/4 472/10/4
f 472/2/4 466/2/4 473/2/4
f 455/2/4 470/2/4 474/2/4
f 474/2/4 470/2/4 475/2/4
f 470/10/4 471/10/4 476/10/4
f 475/2/4 470/2/4 476/2/4
f 471/10/4 472/10/4 476/10/4
f 472/10/4 473/10/4 476/10/4
f 476/10/4 473/10/4 477/10/4
f 475/2/4 476/2/4 478/2/4
f 478/2/4 476/2/4 479/2/4
f 482/2/5 481/2/5 480/2/5
f 483/2/5 481/2/5 482/2/5
f 486/2/5 485/2/5 484/2/5
f 487/2/5 485/2/5 486/2/5
f 488/2/5 486/2/5 484/2/5
f 489/2/5 485/2/5 487/2/5
f 490/2/5 488/2/5 484/2/5
f 490/2/5 489/2/5 488/2/5
f 491/2/5 485/2/5 489/2/5
f 491/2/5 489/2/5 490/2/5
f 496/2/5 493/2/5 492/2/5
f 497/2/5 493/2/5 496/2/5
f 498/2/5 495/2/5 494/2/5
f 499/2/5 495/2/5 498/2/5
f 502/10/5 501/10/5 500/10/5
f 503/10/5 501/10/5 502/10/5
f 506/2/5 505/2/5 504/2/5
f 507/2/5 505/2/5 506/2/5
f 508/2/5 506/2/5 504/2/5
f 509/2/5 506/2/5 508/2/5
f 510/2/5 505/2/5 507/2/5
f 511/2/5 505/2/5 510/2/5
f 514/10/5 513/10/5 512/10/5
f 515/10/5 513/10/5 514/10/5
f 516/10/5 513/10/5 515/10/5
f 521/10/5 518/10/5 517/10/5
f 522/10/5 518/10/5 521/10/5
f 523/2/5 520/2/5 519/2/5
f 524/2/5 520/2/5 523/2/5
f 527/10/5 526/10/5 525/10/5
f 528/10/5 526/10/5 527/10/5
f 533/7/5 532/7/5 531/7/5
f 534/7/5 532/7/5 533/7/5
f 535/10/5 530/10/5 529/10/5
f 536/10/5 530/10/5 535/10/5
f 539/1/5 538/1/5 537/1/5
f 540/1/5 538/1/5 539/1/5
f 541/1/5 538/1/5 540/1/5
f 544/7/5 541/7/5 540/7/5
f 545/7/5 541/7/5 544/7/5
f 546/10/5 543/10/5 542/10/5
f 547/10/5 543/10/5 546/10/5
f 550/10/5 549/10/5 548/10/5
f 551/10/5 549/10/5 550/10/5
f 554/10/5 553/10/5 552/10/5
f 555/10/5 553/10/5 554/10/5
f 556/2/6 557/2/6 558/2/6
f 558/2/6 557/2/6 559/2/6
f 559/2/6 557/2/6 560/2/6
f 560/2/6 557/2/6 561/2/6
f 556/2/6 558/2/6 562/2/6
f 562/2/6 558/2/6 563/2/6
f 559/2/6 560/2/6 564/2/6
f 564/2/6 560/2/6 565/2/6
f 566/10/6 567/10/6 570/10/6
f 570/10/6 567/10/6 571/10/6
f 568/10/6 569/10/6 572/10/6
f 572/10/6 569/10/6 573/10/6
f 574/2/6 575/2/6 576/2/6
f 576/2/6 575/2/6 577/2/6
f 578/2/6 579/2/6 583/2/6
f 580/2/6 581/2/6 585/2/6
f 582/2/6 583/2/6 586/2/6
f 583/2/6 579/2/6 587/2/6
f 586/2/6 583/2/6 587/2/6
f 584/2/6 585/2/6 588/2/6
f 585/2/6 581/2/6 589/2/6
f 588/2/6 585/2/6 589/2/6
f 587/2/6 579/2/6 590/2/6
f 590/2/6 579/2/6 591/2/6
f 592/10/6 593/10/6 594/10/6
f 594/10/6 593/10/6 595/10/6
f 596/10/6 597/10/6 598/10/6
f 598/10/6 597/10/6 599/10/6
f 596/10/6 598/10/6 601/10/6
f 601/10/6 598/10/6 602/10/6
f 600/10/6 601/10/6 603/10/6
f 603/10/6 601/10/6 604/10/6
f 605/2/6 606/2/6 607/2/6
f 607/2/6 606/2/6 608/2/6
f 609/9/6 610/9/6 611/9/6
f 611/9/6 610/9/6 612/9/6
f 613/7/6 614/7/6 617/7/6
f 617/7/6 614/7/6 618/7/6
f 615/10/6 616/10/6 619/10/6
f 619/10/6 616/10/6 620/10/6
f 620/10/6 616/10/6 621/10/6
f 621/10/6 616/10/6 622/10/6
f 621/10/6 622/10/6 624/10/6
f 622/10/6 623/10/6 624/10/6
f 624/10/6 623/10/6 625/10/6
f 626/2/6 627/2/6 629/2/6
f 627/10/6 628/10/6 630/10/6
f 629/2/6 627/2/6 630/2/6
f 630/10/6 628/10/6 631/10/6
f 632/9/6 633/9/6 634/9/6
f 634/9/6 633/9/6 635/9/6
f 635/10/6 636/10/6 637/10/6
f 637/10/6 636/10/6 638/10/6
f 639/10/6 640/10/6 641/10/6
f 641/10/6 640/10/6 642/10/6
f 643/1/6 644/1/6 645/1/6
f 645/1/6 644/1/6 646/1/6
f 647/10/6 648/10/6 651/10/6
f 651/10/6 648/10/6 652/10/6
f 649/7/6 650/7/6 653/7/6
f 653/7/6 650/7/6 654/7/6
f 651/2/6 652/2/6 655/2/6
f 655/2/6 652/2/6 656/2/6
f 657/10/6 658/10/6 660/10/6
f 660/10/6 658/10/6 661/10/6
f 659/7/6 660/7/6 663/7/6
f 660/7/6 661/7/6 663/7/6
f 661/10/6 662/10/6 664/10/6
f 663/7/6 661/7/6 664/7/6
f 664/10/6 662/10/6 665/10/6
f 666/10/6 667/10/6 668/10/6
f 668/10/6 667/10/6 669/10/6
f 670/2/6 671/2/6 672/2/6
f 672/2/6 671/2/6 673/2/6
f 674/2/6 675/2/6 676/2/6
f 676/2/6 675/2/6 677/2/6
f 678/10/6 679/10/6 680/10/6
f 680/10/6 679/10/6 681/10/6
f 682/4/6 683/4/6 686/4/6
f 686/4/6 683/4/6 687/4/6
f 684/10/6 685/10/6 688/10/6
f 688/10/6 685/10/6 689/10/6
f 690/4/6 691/4/6 692/4/6
f 692/4/6 691/4/6 693/4/6
f 694/4/6 695/4/6 697/4/6
f 696/4/6 697/4/6 698/4/6
f 697/4/6 695/4/6 699/4/6
f 698/4/6 697/4/6 699/4/6
f 699/4/6 695/4/6 700/4/6
f 700/4/6 695/4/6 701/4/6
